<?xml version="1.0" encoding="UTF-8" standalone="no"?>
<svg
   xmlns:dc="http://purl.org/dc/elements/1.1/"
   xmlns:cc="http://creativecommons.org/ns#"
   xmlns:rdf="http://www.w3.org/1999/02/22-rdf-syntax-ns#"
   xmlns:svg="http://www.w3.org/2000/svg"
   xmlns="http://www.w3.org/2000/svg"
   xmlns:sodipodi="http://sodipodi.sourceforge.net/DTD/sodipodi-0.dtd"
   xmlns:inkscape="http://www.inkscape.org/namespaces/inkscape"
   version="1.0"
   width="612px"
   height="537px"
   viewBox="0 0 612 537"
   preserveAspectRatio="xMidYMid meet"
   id="svg13378"
   sodipodi:docname="bg.svg"
   inkscape:version="1.0.2 (e86c870879, 2021-01-15)">
  <metadata
     id="metadata13384">
    <rdf:RDF>
      <cc:Work
         rdf:about="">
        <dc:format>image/svg+xml</dc:format>
        <dc:type
           rdf:resource="http://purl.org/dc/dcmitype/StillImage" />
      </cc:Work>
    </rdf:RDF>
  </metadata>
  <defs
     id="defs13382" />
  <sodipodi:namedview
     pagecolor="#ffffff"
     bordercolor="#666666"
     borderopacity="1"
     objecttolerance="10"
     gridtolerance="10"
     guidetolerance="10"
     inkscape:pageopacity="0"
     inkscape:pageshadow="2"
     inkscape:window-width="1920"
     inkscape:window-height="1047"
     id="namedview13380"
     showgrid="false"
     inkscape:zoom="1.1205733"
     inkscape:cx="199.81416"
     inkscape:cy="165.87612"
     inkscape:window-x="0"
     inkscape:window-y="0"
     inkscape:window-maximized="0"
     inkscape:current-layer="svg13378" />
  <g
     fill="#404040"
     id="g11464">
    <path
       d="m 0,534.4 c 0,-2.1 0.3,-2.5 1.8,-1.9 4.2,1.8 5.8,1.6 7.1,-0.8 1.1,-2 1.1,-3.2 0.1,-6.3 -1.8,-5.3 -1.6,-13.3 0.4,-17.1 3.5,-6.9 1.4,-10.5 -5.6,-9.6 L 0,499.3 v -5.1 c 0,-4.4 0.3,-5 2.4,-5.6 3.3,-0.8 4.3,-4.2 2,-6.7 C 3.5,480.9 2.1,480 1.3,480 0.6,480 0,478.9 0,477.4 c 0,-2.5 0.2,-2.6 4.2,-2.1 2.5,0.3 5.1,1.5 6.7,3.1 2.3,2.3 2.6,3.4 2.4,9 -0.3,9.9 2.2,11.2 15,7.5 2.6,-0.7 4.1,-1.8 4.8,-3.6 0.8,-2.3 0.6,-3.1 -2,-5.7 -8.7,-9 -5,-18.6 7.1,-18.6 5.3,0 8.5,2.1 10.4,6.7 1.9,4.5 1.1,7 -4.1,11.9 -4.9,4.6 -5.1,7.2 -0.8,10.2 1.3,0.9 4.2,3.2 6.4,5 2.8,2.1 5.2,3.2 7.4,3.2 3.8,0 4.7,-1 6.3,-6.6 1.5,-5 4.7,-7.4 10.1,-7.4 7.8,0 13.5,8.8 11.1,17 -0.5,1.8 -0.7,3.7 -0.4,4.1 0.3,0.5 -0.2,0.6 -1,0.3 -0.9,-0.3 -1.6,-0.1 -1.6,0.5 0,0.5 -1.8,1.5 -3.9,2.1 -3.3,0.9 -4.8,0.7 -9.1,-1 -8.9,-3.5 -10.5,-2.5 -10.8,6.4 -0.2,5.7 -3.3,12.8 -6.9,15.6 -2.4,1.9 -4.1,2 -26.9,2 H 0 Z m 35.2,-9.6 c 2.2,-1.3 4.6,-3.5 5.4,-5 4,-7.8 -1.5,-17.7 -9.9,-17.8 -11.5,-0.1 -18.4,14.2 -10.6,21.9 3.8,3.9 9.2,4.2 15.1,0.9 z M 76.1,504 c 2.2,-1.2 2.6,-5.9 0.7,-7.8 -2.8,-2.8 -8.8,0 -8.8,4.3 0,4 3.9,5.7 8.1,3.5 z M 38.4,476.8 c 1.5,-2.4 -1.3,-5.3 -4.3,-4.3 -2.1,0.6 -2.9,4.3 -1.4,5.9 1.2,1.2 4.5,0.2 5.7,-1.6 z"
       id="path11178" />
    <path
       d="m 22.6,517.4 c -2.5,-2.4 -1.7,-7.3 1.6,-9.7 3.5,-2.6 7.2,-1.7 8.8,2.4 1.1,2.7 1.1,3.3 -0.7,5.7 -2.4,3.3 -7.3,4.1 -9.7,1.6 z"
       id="path11180" />
    <path
       d="m 89.2,535.9 c 3.2,-1.8 10.7,-2.6 16.4,-1.7 11.1,1.7 9.4,2.7 -4.6,2.7 -9.4,0 -13,-0.3 -11.8,-1 z"
       id="path11182" />
    <path
       d="m 144,536.4 c 0,-0.3 1.1,-2 2.5,-3.8 4,-5.3 1.1,-6.4 -4.5,-1.6 -4.2,3.6 -8.5,4 -9.3,0.9 -0.4,-1.6 0.5,-3.1 3.6,-6 2.3,-2.1 4.5,-3.9 5,-3.9 0.4,0 0.7,-0.7 0.7,-1.5 0,-1.8 0.1,-1.8 -8.4,-0.1 -7.2,1.5 -10.6,0.9 -10.6,-1.9 0,-2.6 2.9,-4.3 9.5,-5.6 4.9,-1 6.5,-1.7 6.5,-3 0,-1.2 -1.2,-1.8 -4.7,-2.3 -7.4,-1.1 -8.3,-1.5 -8.3,-4.1 0,-2.8 1.5,-3.3 9.5,-3.7 6.6,-0.4 6.4,-2 -0.5,-6.1 -4.7,-2.8 -5.5,-3.8 -5.5,-6.2 0,-4.2 2.4,-4.3 9.9,-0.2 4.7,2.6 6.7,3.2 7.5,2.4 1.5,-1.5 1.4,-2.8 -0.9,-5.7 -2.3,-2.9 -2.6,-6.3 -0.6,-7.9 1.9,-1.6 4,-0.5 7.1,3.5 2.5,3.3 4.8,4.3 5.9,2.5 0.3,-0.4 -0.1,-3.4 -0.9,-6.5 -2.1,-8 -1.9,-10.3 0.7,-11.2 3,-0.9 5.1,1.9 6.7,9 1.1,5.1 2.5,7.5 3.7,6.3 0.3,-0.2 1.3,-3.3 2.2,-6.8 1.6,-6.1 1.9,-6.4 4.7,-6.4 2.8,0 3,0.2 3,4 -0.1,2.2 -0.4,5.5 -0.9,7.3 -0.7,2.8 -0.5,3.2 1.1,3.2 1.4,0 3,-2 5.4,-6.7 2.8,-5.5 3.9,-6.8 5.8,-6.8 4.4,0 4.6,2.5 0.8,10.3 -2,3.9 -3.1,7.4 -2.6,7.7 0.5,0.3 2.6,-0.6 4.6,-2 4.4,-2.9 4.7,-3 6.7,-0.9 2.3,2.2 2,3.1 -1.6,6.4 -4.7,4.4 -2.7,5.7 4.5,3 7.5,-2.8 10.2,-2.4 10.2,1.4 0,2.7 -0.6,3.2 -6.5,5.5 -7.1,2.9 -8.6,5.4 -3.5,5.9 1.7,0.1 4.7,0.7 6.8,1.3 3.4,0.9 3.8,1.3 3.5,3.7 -0.3,2.6 -0.5,2.7 -7.1,2.7 -9.2,0 -9.1,2 0.3,6.2 7.5,3.4 9.3,5.5 6.6,8.1 -1.6,1.6 -2.2,1.5 -9.7,-1.2 -4.4,-1.5 -8.3,-2.5 -8.6,-2.2 -0.3,0.3 0.6,2.1 2.1,4 3.2,4.2 3.4,7.2 0.5,8.1 -1.6,0.5 -3,-0.1 -5.5,-2.6 -2.7,-2.6 -3.7,-3 -4.6,-2.1 -1,1 -1,1.7 0,3.2 0.6,1.1 1.2,2.2 1.2,2.4 0,0.2 -6.7,0.4 -15,0.5 -9.3,0 -15,-0.3 -15,-0.9 0,-1.3 -3.7,-1.3 -4.5,0 -0.6,1 -9.5,1.4 -9.5,0.4 z m 35.7,-12.9 c 9.3,-7.1 11.8,-15.6 6.8,-23.5 -6.4,-10.2 -23.2,-11.3 -32.2,-2.3 -6.8,6.9 -5.4,19.8 2.9,26.2 4.2,3.3 6.9,4.1 12.5,3.7 4.1,-0.4 6.3,-1.2 10,-4.1 z"
       id="path11184" />
    <path
       d="m 160,518.1 c -6.2,-1.7 -7.6,-11.8 -2.3,-16.7 3,-2.7 6.2,-3 10.2,-0.9 5.1,2.6 5.8,9.7 1.4,14.4 -3.2,3.3 -5.7,4.2 -9.3,3.2 z"
       id="path11186" />
    <path
       d="m 177.1,514.6 c -3.1,-3.7 0.9,-10.3 4.7,-8 3.6,2.3 2.3,9.4 -1.8,9.4 -1,0 -2.3,-0.6 -2.9,-1.4 z"
       id="path11188" />
    <path
       d="m 173.4,501.3 c -1.9,-3.2 -0.6,-5.4 2.9,-5.1 2.5,0.2 3.3,0.8 3.5,2.7 0.6,3.9 -4.4,5.7 -6.4,2.4 z"
       id="path11190" />
    <path
       d="m 232.9,531.4 c -2.5,-10.9 1.8,-23.1 11.1,-31.7 6.6,-6.2 12.2,-8.2 21.5,-8.1 11.1,0.2 19.3,5.8 24.6,17 4.9,10.3 12.6,12.2 22.3,5.5 7.5,-5.2 12.5,-7.1 19,-7.1 13.4,0 21.6,9.3 21.6,24.8 v 5.2 h -5.4 -5.5 l 0.5,-5.2 c 0.6,-6.4 -1.6,-10.6 -6.9,-13.1 -4.3,-2.1 -6.7,-2.1 -11.2,-0.3 -4.4,1.9 -6.9,6.6 -6.8,13.4 v 5.2 h -5.3 c -4.3,0 -5.5,-0.4 -6.4,-2 -0.6,-1.1 -2.4,-2.7 -4.1,-3.5 -3.7,-2 -8.9,-0.6 -11.8,3.1 -1.7,2.2 -2.6,2.4 -10,2.4 H 272 l 3.2,-4.5 c 2.6,-3.7 3.3,-5.7 3.6,-10.8 0.3,-5.3 0,-6.7 -2,-9.7 -6.7,-9.9 -19.3,-11.5 -27,-3.4 -1.8,1.9 -3.8,4.9 -4.5,6.7 -1.8,5.1 -1.5,12.8 0.7,17.2 1.1,2.2 2,4.1 2,4.2 0,0.2 -3.1,0.3 -6.9,0.3 h -7 z"
       id="path11192" />
    <path
       d="m 327,534.7 c 0,-3.1 1.8,-4.7 5.2,-4.7 2.8,0 4.8,2.3 4.8,5.4 0,1.2 -1.1,1.6 -5,1.6 -4.6,0 -5,-0.2 -5,-2.3 z"
       id="path11194" />
    <path
       d="m 375.5,536 c 0.3,-0.5 1.2,-1 2,-1 0.8,0 1.7,0.5 2,1 0.4,0.6 -0.5,1 -2,1 -1.5,0 -2.4,-0.4 -2,-1 z"
       id="path11196" />
    <path
       d="m 400,536.2 c 0,-0.5 0.6,-1.6 1.3,-2.6 1.8,-2.4 5.1,-1.7 5.5,1.2 0.3,1.9 -0.1,2.2 -3.2,2.2 -2,0 -3.6,-0.4 -3.6,-0.8 z"
       id="path11198" />
    <path
       d="m 449.5,535.9 c -0.4,-0.6 -0.4,-2.5 -0.1,-4.4 0.6,-2.9 0.4,-3.3 -2,-3.9 -2.3,-0.6 -3.2,-0.1 -5.6,2.8 -5.4,6.5 -10,3.6 -6,-3.8 2.2,-3.9 2.2,-4.1 0.4,-5.8 -1.7,-1.8 -1.9,-1.8 -5.8,0.4 -7.4,4 -10.2,-0.5 -3.8,-6.1 2.9,-2.6 3.4,-3.6 2.9,-5.9 -0.5,-2.5 -0.9,-2.7 -4.8,-2.4 -4.9,0.4 -8.4,-1.6 -7.4,-4.2 0.7,-1.9 4.7,-3.6 8.3,-3.6 2,0 2.4,-0.5 2.4,-3 0,-2.5 -0.4,-3 -3.4,-3.6 -4.2,-0.7 -6.9,-3.4 -6,-5.9 0.6,-1.5 1.6,-1.7 6.6,-1.2 3.2,0.3 5.8,0.1 5.8,-0.3 0,-0.5 0.2,-1.5 0.6,-2.3 0.3,-0.9 -0.6,-1.9 -2.6,-2.7 -5.5,-2.3 -6.6,-8 -1.5,-8 1.4,0 3.9,0.7 5.4,1.5 2.6,1.3 3,1.3 4.6,-0.5 1.7,-1.8 1.6,-2.1 -0.9,-5.1 -5.2,-6.1 -1.4,-10.3 4.9,-5.5 2.6,2 4.1,2.5 6,2 2.3,-0.6 2.6,-1 1.9,-3.3 -0.4,-1.4 -0.8,-3.9 -0.8,-5.6 -0.1,-2.5 0.3,-3 2.5,-3.3 2.1,-0.3 2.8,0.4 4.4,3.8 2.3,5.2 5.5,5.6 5.5,0.7 0,-4.1 2,-7 4.5,-6.6 1.4,0.3 2.2,1.8 3,5.4 1.2,6 3.7,7.2 5.1,2.4 1.1,-3.7 3.4,-5.5 5.9,-4.5 1.5,0.5 1.7,1.4 1.2,5.5 -0.7,6.1 1.3,7.6 5,3.6 2.7,-2.8 6.1,-3.3 7,-0.9 0.3,0.9 -0.2,3.2 -1.1,5.1 -2.1,4.3 -0.8,6.7 2.2,4 2.2,-2 7.1,-2.3 7.3,-0.4 0.3,2.6 -0.4,4.3 -2.6,6.7 -3.2,3.5 -2.3,4.8 2.9,4.3 3.3,-0.4 4.4,-0.2 4.9,1.1 1,2.5 -0.1,4.1 -3.8,5.9 -3.8,1.8 -4.8,5.4 -1.7,6.3 7.7,2.5 9.3,4.2 6.5,6.9 -1.2,1.2 -2.6,1.4 -6,0.9 -6.4,-0.9 -7.5,1.2 -2.2,4.4 2.9,1.7 3.9,3 3.9,4.8 0,3.5 -2.5,4 -7.5,1.6 -3.1,-1.5 -4.5,-1.8 -5.4,-0.9 -0.8,0.8 -0.3,1.9 2,4.3 6.2,6.3 1.4,11.4 -5.3,5.5 -4.4,-3.9 -6.8,-2.9 -4.3,1.8 2.1,4.2 1.6,7.5 -1.1,7.9 -2,0.3 -5.6,-3 -6.6,-6 -0.2,-0.6 -1.3,-0.8 -2.6,-0.3 -2,0.6 -2.2,1.1 -1.7,4.8 0.7,5 -0.4,7 -3.6,6.5 -1.9,-0.2 -2.6,-1.2 -3.4,-4.6 -0.8,-3.8 -1.2,-4.3 -3.4,-4 -1.7,0.2 -2.7,1 -2.9,2.3 -0.9,6 -1.2,6.5 -4.2,6.5 -1.6,0 -3.2,-0.5 -3.5,-1.1 z m 17.1,-19.4 c 9.7,-3.9 14.4,-7.7 18,-14.7 2.6,-5.1 3.1,-11.7 1.3,-16.5 -2.2,-5.9 -10.9,-12.5 -18.2,-13.8 -4.5,-0.9 -13,0.2 -12.2,1.6 0.3,0.5 0,0.6 -0.8,0.4 -1.9,-0.8 -10.4,7 -13,11.9 -1.7,3.2 -2.2,5.8 -2.2,12.2 0,7.1 0.3,8.5 2.7,12.2 1.6,2.3 4.5,5 6.5,6.1 4.6,2.5 12.6,2.7 17.9,0.6 z"
       id="path11200" />
    <path
       d="m 450.3,508.8 c -2.7,-1.3 -5.3,-6.6 -5.3,-10.7 0,-4.5 3.5,-10.8 7.3,-13.1 4,-2.5 8.2,-2.5 12.6,-0.2 10.4,5.2 9.7,17.7 -1.2,22.8 -5.5,2.5 -9.8,2.9 -13.4,1.2 z"
       id="path11202" />
    <path
       d="m 497,535.1 c 1.4,-2.8 5,-5.1 7.8,-5.1 3.1,0 7.9,2.6 9.2,5 1,1.9 0.7,2 -8.5,2 -9.2,0 -9.5,-0.1 -8.5,-1.9 z"
       id="path11204" />
    <path
       d="m 544,535.6 c 0,-0.8 0.5,-2.7 1.1,-4.3 0.9,-2.4 0.7,-3 -1.2,-4.6 -2.1,-1.7 -2.3,-1.7 -4.3,0.1 -3.1,2.9 -6.3,4.3 -8,3.6 -2.6,-1 -1.8,-5.1 1.5,-8.4 2.7,-2.5 3,-3.2 1.9,-4.6 -1,-1.2 -2.5,-1.4 -5.9,-1 -5.6,0.8 -7.6,-0.3 -6.8,-3.6 0.5,-1.8 1.8,-2.8 4.7,-3.7 5.5,-1.6 5.3,-4.7 -0.4,-6.6 -4.9,-1.7 -6.9,-3.6 -6,-5.9 0.6,-1.5 1.6,-1.7 6,-1.4 7.1,0.6 8.1,-1.6 3,-6.6 -2.3,-2.2 -3.4,-4 -3,-5 0.8,-2.1 5.5,-2 9.3,0.1 4.1,2.4 5.3,1 3.9,-4.3 -1.4,-5.1 -0.6,-7.6 2.4,-7.2 1.4,0.2 3.1,1.7 4.3,4 2.3,4.3 4.3,4.8 7.2,1.6 4.9,-5.4 5.1,-9.8 0.7,-17.4 -5.8,-10.3 -5.2,-20.7 1.6,-26.8 8,-7.2 21,-7.4 29.4,-0.4 5.1,4.2 6.9,8.2 7,15.4 0.1,4.9 -0.4,6.7 -2.4,9.6 -3.1,4.7 -9,8.4 -16.2,10.4 -6.1,1.7 -7.1,2.5 -8.2,6.1 -0.5,1.6 0.1,3 2.3,5.5 l 3,3.3 2.8,-2.7 c 3.9,-3.8 7.3,-3.8 7.3,0 0,1.5 -0.7,3.8 -1.6,5.1 -1.5,2.1 -1.5,2.4 -0.1,3.9 1.3,1.3 2.1,1.3 4.2,0.4 3.6,-1.6 7.2,-1.5 7.9,0.3 0.9,2.4 -0.2,4.1 -4,6.1 -1.9,1 -3.4,2.1 -3.4,2.4 0.1,1.5 2,2.8 6.3,4 3.8,1 4.7,1.7 4.7,3.5 0,2.7 -1.7,3.5 -7.1,3.5 -3.5,0 -3.9,0.3 -3.9,2.5 0,1.7 0.9,2.9 3,4 4.1,2.1 5.7,5.3 3.6,7.3 -1.4,1.4 -2.1,1.5 -4.9,0.3 -1.7,-0.7 -3.9,-1.5 -4.8,-1.8 -2.7,-0.8 -3,2.6 -0.6,6.7 4,7 -1,10.1 -6.4,3.9 -2.1,-2.4 -3.1,-2.9 -5.2,-2.4 -2.3,0.6 -2.5,1.1 -2,3.7 0.6,2.9 0.5,2.9 -3.3,2.6 -3,-0.2 -4,-0.8 -4.3,-2.3 -0.8,-4.4 -5.5,-4.7 -7,-0.5 -0.8,2.6 -1.5,3 -4.5,3 -2.5,0 -3.6,-0.5 -3.6,-1.4 z m 14.8,-22 c 3.3,-3.2 4.3,-8.6 2.5,-12.4 -3.3,-6.8 -13.8,-7.9 -18.8,-2 -2.8,3.3 -3.2,6.6 -1.1,10.7 1.9,3.6 3.9,5.2 7.9,6.1 4.1,1 6.6,0.3 9.5,-2.4 z M 570,452 c 1,-0.5 2.2,-2.3 2.8,-3.9 2.2,-6.2 -4.4,-11.3 -9.7,-7.4 -3.8,2.9 -4,7.4 -0.5,10.2 3,2.3 4.6,2.6 7.4,1.1 z"
       id="path11206" />
    <path
       d="m 601.3,534.5 c 2,-1.8 4,-2.5 6.8,-2.5 3.4,0 3.9,0.3 3.9,2.3 0,2.1 -0.4,2.3 -6.7,2.4 l -6.8,0.2 z"
       id="path11208" />
    <path
       d="m 249.6,532.8 c -3.2,-4.5 -1,-9.8 4,-9.8 4.9,0 8.5,7.5 5.2,10.8 -2.1,2.1 -7.5,1.5 -9.2,-1 z"
       id="path11210" />
    <path
       d="m 263.5,525.7 c -2.1,-1.7 -2.7,-3.2 -2.7,-6.2 0,-7.1 6.9,-9.9 11.9,-4.9 2.1,2.1 2.4,3.2 1.9,6.2 -0.6,3.9 -3.6,7.2 -6.7,7.2 -1,0 -3,-1 -4.4,-2.3 z"
       id="path11212" />
    <path
       d="m 383.4,521.8 c -2.3,-0.5 -5.4,-2.2 -7.2,-3.9 -14.1,-13.7 5.9,-36.2 23,-26.1 6.2,3.6 8.3,15.4 4,22.6 -1.2,2.1 -1.9,4.2 -1.6,4.8 0.4,0.6 0.2,0.8 -0.3,0.5 -0.6,-0.4 -2.3,-0.1 -3.9,0.7 -4,1.9 -9.2,2.4 -14,1.4 z m 12.4,-7.5 c 5,-3.1 5.6,-11 1.3,-15.4 -6.7,-6.6 -19,-1.1 -19.1,8.6 -0.1,7.9 10,11.7 17.8,6.8 z"
       id="path11214" />
    <path
       d="m 383.7,510.2 c -4,-4.4 -0.5,-11.2 5.6,-11.2 4,0 6.7,2.5 6.7,6.3 0,5.6 -8.6,9 -12.3,4.9 z"
       id="path11216" />
    <path
       d="m 251.4,518.3 c -3.2,-2.3 -1.8,-8.3 1.9,-8.3 3.5,0 5.3,2.5 4.1,5.8 -0.9,2.7 -3.9,3.9 -6,2.5 z"
       id="path11218" />
    <path
       d="m 608.4,498 c -3.3,-1.3 -6.4,-5.9 -6.4,-9.4 0,-4.9 5.3,-12.5 8.8,-12.6 1.9,0 1.4,3.8 -0.8,6 -1.1,1.1 -2,2.7 -2,3.5 0,0.8 0.9,2 2,2.7 1.5,1 2,2.4 2,6 0,5 -0.2,5.2 -3.6,3.8 z"
       id="path11220" />
    <path
       d="m 336.7,490.6 c -4,-1.5 -6.5,-3.2 -8.4,-5.8 -1,-1.3 -2.4,-1.5 -7.3,-1.1 -5.5,0.5 -6,0.4 -6,-1.4 0,-2.5 2.6,-4.9 6.3,-5.8 4.6,-1.2 3.2,-4.5 -2.4,-6.1 -6,-1.8 -7.6,-3.6 -5.2,-5.9 1.3,-1.3 2.7,-1.6 6.4,-1.2 4.1,0.5 4.8,0.3 5.2,-1.4 0.4,-1.6 -0.3,-2.3 -3.4,-3.6 -7.9,-3.1 -6.8,-8.1 1.6,-7 4.5,0.7 4.5,0.6 4.5,-2.3 0,-2.3 -0.5,-3 -1.9,-3 -1,0 -3.2,-0.5 -5,-1.1 -6.2,-2.2 -2.5,-7.6 4.4,-6.3 3.3,0.6 3.5,0.5 3.5,-2 0,-2.4 -0.3,-2.6 -4.4,-2.6 -5.9,0 -8.1,-2.4 -4.7,-5.1 1.3,-1.1 3.1,-1.9 4,-1.9 2.7,0 3,-0.8 1.9,-4.7 -4,-14.5 12.3,-26 27.2,-19.2 2.5,1.1 5.7,3.1 7.1,4.5 l 2.6,2.5 3.4,-2 c 1.9,-1.2 4.6,-2.1 6.2,-2.1 2.2,0 2.7,0.4 2.7,2.5 0,1.8 -1.1,3.2 -3.9,5.1 -3.7,2.4 -3.9,2.8 -2.8,5.1 1,2.2 1.5,2.4 4.6,1.8 4.2,-0.8 4,-0.8 6.9,-0.6 4,0.2 2.4,4.3 -2.5,6.6 -3.5,1.6 -4.3,2.4 -4,4.5 0.2,2.3 0.6,2.5 4.8,2.5 8.9,0 9.9,5.8 1.2,7.1 -3.7,0.5 -4.3,1 -4.3,3 0,2.1 0.5,2.4 3.4,2.4 1.9,0 4.4,0.9 5.7,1.9 2.2,1.8 2.3,2.1 0.8,3.6 -0.9,0.9 -3.5,1.9 -5.8,2.2 -2.4,0.3 -4.1,1.1 -4.1,1.8 0,0.8 -0.3,2 -0.6,2.8 -0.4,1.1 0.5,1.6 3.3,2.2 4.5,0.8 6.3,2.1 6.3,4.5 0,2.2 -3.9,3.3 -8.6,2.4 -2.9,-0.5 -3.6,-0.3 -4,1.2 -0.8,3.2 -0.5,3.8 3.4,6 4.1,2.3 5.5,6 2.6,7.1 -1,0.4 -3.8,-0.1 -6.3,-1 l -4.6,-1.6 -3.7,3.9 c -7.1,7.5 -17.9,10.7 -26.1,7.6 z m 14.6,-7 c 11.1,-4.9 12.6,-14.8 3.2,-20.6 -4.2,-2.6 -9.7,-2.4 -15.8,0.5 -7.2,3.4 -9.1,13 -3.7,18.5 2.5,2.6 3.7,3 8,3 2.8,0 6.5,-0.6 8.3,-1.4 z m 3.8,-30.6 c 11.2,-3.1 8.7,-15 -3.2,-15 -7.8,0 -12.3,3.1 -12.3,8.6 0,6.2 6.5,8.9 15.5,6.4 z m -2.5,-23.4 c 4,-4 3.7,-9.5 -0.6,-14.5 -3.6,-4.1 -9.6,-5.3 -13.5,-2.7 -3.6,2.4 -3.5,8.9 0.3,13.9 1.5,2 3.4,3.8 4.2,4 3.3,1 8.2,0.6 9.6,-0.7 z"
       id="path11222" />
    <path
       d="m 338.8,479.9 c -1.2,-0.6 -1.8,-2.2 -1.8,-4.4 0,-2.9 0.4,-3.5 3.5,-4.5 7.1,-2.3 11.8,4.6 5.6,8.3 -3.3,1.9 -4.9,2.1 -7.3,0.6 z"
       id="path11224" />
    <path
       d="m 94.5,488.8 c -3.6,-1.9 -6.6,-5.2 -8.2,-8.8 -2.6,-5.6 -5.2,-7.9 -9.9,-8.6 C 67,470 58.1,461.1 55.9,451 c -2.7,-12.5 2.8,-21.8 15.2,-25.9 4.3,-1.4 6.9,-4.1 9.8,-10.2 1.2,-2.6 2.9,-5.5 3.9,-6.6 5.5,-6.1 14.1,-9 22,-7.3 9.7,2.2 14.8,8.4 16.2,19.7 1,7.9 3.2,11.3 8.9,13.3 5.3,1.9 9.6,6 11.1,10.6 1.7,5 0.8,12.5 -1.9,16.3 -2.7,3.8 -8.8,7.1 -13.1,7.1 -5.4,0 -6.7,1.4 -7.5,7.7 -0.6,5 -1.3,6.3 -4.5,9.4 -2.1,2 -5.2,3.9 -7,4.3 -4.9,0.9 -12.3,0.7 -14.5,-0.6 z m 13.5,-7.3 c 5.9,-3 6.8,-9.8 2.1,-14.6 -3.3,-3.3 -5.8,-3.6 -10.5,-1.4 -3.8,1.8 -6.6,6.2 -6.6,10.3 0,6.1 8.3,9.2 15,5.7 z M 83.4,463.8 c 1.3,-2.2 -1,-5 -3.8,-4.6 -2.7,0.4 -3.3,3.8 -1,5.5 2.1,1.5 3.4,1.3 4.8,-0.9 z M 98,460.3 c 3.2,-1.8 5.6,-7.9 4.5,-11.2 -1,-3.4 -4.9,-5.4 -8.9,-4.7 -5.6,1.1 -9,6.6 -7.5,12.1 1.6,5.5 6.5,7 11.9,3.8 z m 18.8,-2.7 c 0.5,-3.6 -2.4,-6.9 -5.2,-6 -2.9,0.9 -3.7,2.4 -3.1,5.4 1.3,5.5 7.7,6 8.3,0.6 z m 18.6,0.3 c 4.5,-3.5 3.2,-11.9 -2.4,-15.2 -3.9,-2.4 -6.7,-2.1 -9.7,0.9 -2.2,2.2 -2.5,3.2 -2,7 0.9,8.4 8,12.1 14.1,7.3 z M 77.3,454 c 3.4,-2.7 4.1,-5.3 2.6,-9.7 -2.9,-8.9 -12.1,-9.9 -15.5,-1.7 -3.8,9.2 5.4,17.3 12.9,11.4 z m 39.5,-11.5 c 5.3,-6.2 0.8,-16.4 -6.7,-15.1 -7.8,1.2 -10.9,10.5 -5.4,16.1 2.3,2.2 3.4,2.6 6.3,2.1 2,-0.3 4.5,-1.6 5.8,-3.1 z m -25.5,-4.2 c 0.8,-1 2.5,-3.9 3.6,-6.6 1.1,-2.6 3.2,-5.9 4.6,-7.3 5.9,-5.9 -0.1,-11.8 -8.8,-8.5 -4.1,1.6 -8.7,8.4 -9.3,13.8 -0.5,4.2 -0.3,5.1 1.9,7.6 3,3.1 5.7,3.5 8,1 z m 24.1,-18.9 c 2.2,-2.1 2,-4.6 -0.4,-7.2 -3.4,-3.6 -9,-2.1 -9,2.3 0,5.1 6.1,8.3 9.4,4.9 z"
       id="path11226" />
    <path
       d="m 238.4,482.9 c -0.6,-1 0.2,-11.1 1.2,-15.5 0.3,-1.1 -0.3,-3 -1.4,-4.3 -2.4,-3 -5.6,-2.1 -7.8,2.2 -2.4,4.8 -5.5,7.7 -8.1,7.7 -2.9,0 -3.1,-3 -0.3,-5.5 2.6,-2.3 7,-11 7,-13.6 0,-2.8 -4,-2.4 -11,1.1 -6.1,3.1 -9,3.1 -9,0.1 0,-2 3.3,-4.5 11.1,-8.6 l 5.6,-2.9 0.7,-7.9 c 0.8,-9.6 0.1,-10.7 -8.5,-13.8 -6.5,-2.4 -9.5,-5 -8.5,-7.5 0.9,-2.3 5.6,-1.4 14.6,2.9 7.5,3.6 10,3.8 10,0.8 0,-2.4 -2.6,-14.1 -4,-17.9 -1.5,-4 -0.1,-6.4 2.7,-4.6 2.2,1.4 2.9,2.8 4.8,9.5 2.4,9.1 3.9,10.3 12.1,10 8.3,-0.2 9.4,-1.3 9.4,-8.7 0,-5.6 1.6,-10.4 3.4,-10.4 3.3,0.1 3.7,1.7 3,10.3 -1,12.1 -0.7,12.4 6.4,8.8 3.3,-1.6 7.3,-4.1 8.9,-5.5 4,-3.4 6.3,-3.4 6.3,-0.1 0,1.9 -1.4,3.5 -6,6.8 -5.9,4.1 -8.3,7.8 -6.2,9.9 0.7,0.7 4.2,0.5 11.2,-0.7 8.9,-1.5 10.4,-1.5 11.6,-0.3 2.4,2.4 0.6,4.6 -4.7,5.7 -2.8,0.6 -5.6,1.1 -6.4,1.1 -3.1,0 -6.5,2.4 -6.5,4.6 0,3.1 2.2,3.6 12,2.8 7.1,-0.5 8.8,-0.4 9.9,0.9 1.7,2.1 0.6,3.7 -2.6,3.7 -1.5,0 -5.2,0.6 -8.2,1.4 -3.1,0.8 -6.8,1.7 -8.2,2 -1.8,0.4 -3.1,1.8 -4.4,4.5 -0.9,2.2 -2.8,5 -4.1,6.2 -1.3,1.2 -2.4,2.8 -2.4,3.5 0,3.1 2.6,6.6 6.7,8.9 4.9,3 7.6,6.5 6.7,8.9 -0.9,2.3 -2.7,2 -5.3,-0.8 -1.3,-1.4 -3.7,-3 -5.4,-3.7 -1.8,-0.6 -5,-3.2 -7.2,-5.6 -3.8,-4.2 -4.1,-4.3 -7.5,-3.3 -1.9,0.5 -5.3,1 -7.5,1 -2.2,0 -4.6,0.4 -5.3,0.8 -0.7,0.5 -1.7,3.7 -2.3,7.3 -0.7,3.5 -1.6,7 -2.1,7.7 -1.3,1.5 -3.5,1.6 -4.4,0.1 z m 19.2,-27 c 1.3,-1.5 1.6,-2.4 0.8,-3.6 -2.6,-4.2 -6.2,-4.2 -8.8,0.1 -0.9,1.4 -0.6,2.1 1.3,3.7 3,2.4 4.3,2.4 6.7,-0.2 z m -2.9,-13.8 c 3.5,-2.2 4.9,-6.2 3.8,-11.1 -1.3,-6 -9.9,-8.8 -15.8,-5.1 -7.7,4.8 -7.4,12.4 0.8,16.6 4,2 7.4,1.9 11.2,-0.4 z"
       id="path11228" />
    <path
       d="m 518.7,459.8 c -2.6,-1.4 -2.2,-8 0.9,-14 3.7,-7.3 2.2,-14.8 -3.1,-14.8 -1.2,0 -4.9,-1.3 -8.1,-3 -6.6,-3.3 -9,-3.6 -11.8,-1.5 -1,0.8 -4.2,2.2 -7,3.1 -2.8,0.9 -6.2,2.5 -7.5,3.5 -4.3,3.4 -7.9,2 -6.7,-2.6 0.4,-1.7 2.7,-3.3 8,-6 8.6,-4.2 11.9,-7.3 11.4,-10.7 -0.5,-3.7 -4.9,-3.5 -13.9,0.7 -8.9,4.2 -12.2,4.1 -11.7,-0.3 0.3,-2.4 1.8,-3.5 12.1,-8.5 8.1,-4 11.7,-6.3 11.7,-7.5 0,-3.5 4.9,-11.9 10.4,-18.1 5.1,-5.6 5.7,-6.8 5.2,-9.5 -0.3,-1.7 -0.8,-5.6 -1.1,-8.6 -0.3,-3 -1.1,-7.2 -1.7,-9.3 -1,-3.2 -0.9,-4 0.5,-5.4 1.5,-1.5 1.8,-1.5 3.6,0.1 2.3,2.1 3.6,5.9 4.5,12.6 0.4,2.5 1.5,6 2.6,7.8 1.9,3 2.3,3.2 7.8,3.2 7.2,0 14.1,2 19.3,5.6 l 3.9,2.7 4.9,-2.2 c 2.7,-1.1 5.7,-2.1 6.7,-2.1 0.9,0 4.1,-1.2 7.1,-2.7 4.9,-2.5 5.4,-2.6 7,-1.1 2.7,2.8 -0.4,6.1 -8.6,9.3 -9,3.4 -12.1,5.8 -12.1,9.4 0,3.1 2.7,6.1 5.4,6.1 0.9,0 4.5,0.9 7.9,2 3.4,1.1 7.9,2.2 10,2.5 4.1,0.7 5.6,2.7 3.7,5 -1.6,1.9 -6,1.9 -14.8,-0.1 -9.3,-2.1 -11.7,-1 -14.5,6.4 -2.6,7 -8.4,13.3 -15.2,16.6 l -5.5,2.7 v 5.2 c 0,3.4 -0.7,6.5 -2,8.7 -3.1,5.4 -3.8,7.2 -4.5,11.2 -0.6,3.9 -2.2,5.1 -4.8,3.6 z M 531.8,412 c 8.1,-5.8 12.2,-17.1 8.7,-23.6 -2.2,-4.1 -10.2,-8.4 -15.6,-8.4 -8.6,0 -17,9.1 -17.7,19.1 -0.4,5.1 -0.2,5.9 2.7,9.1 6.5,7.4 14.9,8.9 21.9,3.8 z"
       id="path11230" />
    <path
       d="m 525.2,401.4 c -4,-2.8 -2.3,-11.3 2.7,-13.4 3.4,-1.4 7.5,0 9.1,3.1 1.4,2.6 0.6,7.6 -1.7,10.1 -2,2.2 -7.1,2.3 -10.1,0.2 z"
       id="path11232" />
    <path
       d="M 9,455.1 C 7.6,454.6 5,453.5 3.2,452.6 L 0,450.9 V 434.1 C 0,418 0.1,417 2.6,411.5 4.9,406.4 5.1,405.3 4.1,402 3.5,399.9 2.3,397.7 1.5,397 0.4,396.1 0,393.7 0,388.3 c 0,-7 0.1,-7.4 2,-6.8 6.9,2.2 15,-0.4 21.2,-6.8 7.7,-8 6.9,-17.6 -2.1,-24.5 -4.2,-3.2 -4.8,-3.3 -11,-3 -3.6,0.2 -7.4,0.8 -8.3,1.2 -1.6,0.7 -1.8,0.2 -1.8,-5.2 v -6 l 5,-1.1 c 6.3,-1.4 7.7,-1.4 14,0 16.9,3.6 26.6,25.9 18.6,42.4 -2.9,5.7 -7.8,10.3 -14.1,12.9 -5.5,2.4 -8.2,9.5 -5.5,14.7 0.6,1 4.1,3.4 7.8,5.3 11.1,5.7 16.2,12.7 16.2,22.3 -0.1,9.1 -6.3,17.7 -14.9,20.8 -4.5,1.6 -13.8,1.9 -18.1,0.6 z m 15,-10.7 c 11.9,-4.8 9.8,-19.7 -3.2,-23.4 -4.1,-1.2 -11,0.1 -13.3,2.4 -6.2,6.2 -5.3,16.3 1.8,20.6 3.9,2.4 9.3,2.5 14.7,0.4 z"
       id="path11234" />
    <path
       d="m 17.6,438.4 c -3,-2.9 -0.9,-8.4 3.2,-8.4 2.6,0 6.2,2.9 6.2,5 0,2.6 -2.7,5 -5.5,5 -1.3,0 -3.1,-0.7 -3.9,-1.6 z"
       id="path11236" />
    <path
       d="m 607.6,444.8 c -1.7,-3.4 -2.6,-6.8 -2.6,-10 0,-4.9 3.1,-14.2 5.6,-16.8 1.2,-1.2 1.4,0.8 1.4,15.3 0,9.4 -0.4,16.7 -0.9,16.7 -0.5,0 -2.1,-2.3 -3.5,-5.2 z"
       id="path11238" />
    <path
       d="m 170.5,447.3 c -9.2,-4.9 -13.4,-18.6 -8.2,-26.4 4.8,-7.3 17.4,-10.2 24.6,-5.8 4.6,2.8 6.7,5.6 8.2,10.6 2.6,9.4 -0.8,19 -7.7,21.9 -4.4,1.9 -13.2,1.7 -16.9,-0.3 z m 15.8,-7.3 c 3.6,-2.8 4.4,-7.9 2.2,-13.6 -3.3,-8.7 -14.1,-10.1 -20.2,-2.6 -1.8,2.2 -1.6,7.7 0.2,11.3 3.4,6.4 12.7,8.9 17.8,4.9 z"
       id="path11240" />
    <path
       d="m 173.4,436.7 c -3.4,-2.9 -3.9,-8.4 -0.9,-11.7 5.9,-6.5 16.4,4.1 10.8,10.8 -2.9,3.4 -6.6,3.7 -9.9,0.9 z"
       id="path11242" />
    <path
       d="m 413.1,447.2 c -1.9,-0.9 -4.4,-3 -5.5,-4.5 -2.3,-3.1 -2.4,-5.5 -1.1,-23.2 0.7,-9.6 0.6,-10.6 -2.6,-21.5 -2.8,-9.4 -3.4,-13.2 -3.4,-21 0,-8.8 0.2,-9.8 2.9,-14.1 11.2,-17.6 34.5,-13 42.5,8.5 9.2,24.7 0.9,64.4 -15.9,75.9 -3.3,2.3 -12.4,2.3 -16.9,-0.1 z m 13.2,-9.3 c 8.7,-4.5 15,-21.3 15,-40.4 0,-16.7 -3.2,-26.9 -9.8,-31.2 -7.2,-4.7 -15.6,-1.7 -20,7.1 -3.2,6.5 -3.2,12.6 0,25 2.6,10.1 3.2,20 1.5,27.1 -2,8.7 6,16.2 13.3,12.4 z"
       id="path11244" />
    <path
       d="m 418.9,430.6 c -1.5,-3.3 -0.4,-7.2 2.6,-9.2 5.6,-3.6 11.5,4.6 6.9,9.7 -2.6,2.9 -8.1,2.6 -9.5,-0.5 z"
       id="path11246" />
    <path
       d="m 429.5,419 c -1,-1.7 0.4,-4.8 2.7,-5.5 2.6,-0.9 4.1,0.6 3.6,3.6 -0.2,1.7 -1,2.5 -3,2.7 -1.4,0.2 -2.9,-0.2 -3.3,-0.8 z"
       id="path11248" />
    <path
       d="m 418.6,416.5 c -1.9,-2 -2,-2.6 -0.3,-4.9 2.6,-3.6 8.4,0.4 6.1,4.2 -1.5,2.3 -3.8,2.6 -5.8,0.7 z"
       id="path11250" />
    <path
       d="m 424.8,407.9 c -2.5,-3.2 -3,-8.7 -1.4,-14.8 1.7,-6 2.7,-7.1 7.2,-7.1 5.2,0 6.9,2.9 6.9,12 0,6.3 -0.4,8.2 -1.9,9.9 -2.6,2.9 -8.5,2.8 -10.8,0 z"
       id="path11252" />
    <path
       d="m 413.1,391.6 c -2.2,-2.6 -0.9,-6.9 2.2,-8 3.6,-1.3 6.1,0.2 6.5,4 0.6,4.6 -5.8,7.5 -8.7,4 z"
       id="path11254" />
    <path
       d="m 419.5,380.6 c -2.7,-1.9 -2.4,-7.4 0.4,-9.8 2.8,-2.2 8.4,-2.4 10.5,-0.2 2,2 2,6.3 0,9.2 -1.8,2.6 -7.9,3.1 -10.9,0.8 z"
       id="path11256" />
    <path
       d="m 149.6,414.4 c -0.9,-0.8 -1.6,-3.1 -1.6,-4.9 0,-2.9 -0.4,-3.4 -2.7,-3.7 -2.4,-0.3 -3,0.2 -4.3,3.6 -1.9,4.8 -5.4,6.5 -7.1,3.4 -0.8,-1.5 -0.8,-3.2 0.2,-6.6 1.1,-3.9 1,-4.7 -0.2,-5.1 -3.8,-1.2 -12.9,-11.6 -16.2,-18.4 -6.5,-13.5 -7.2,-24.5 -2.3,-35.4 3.1,-6.6 11.3,-15.4 16.7,-17.8 3.9,-1.8 4,-2 3.4,-5.6 -0.7,-4.1 0.7,-7.9 3,-7.9 1.9,0 4.5,3.9 4.5,6.7 0,1.9 0.6,2.3 2.9,2.3 2.5,0 2.9,-0.5 3.7,-4.1 1,-4.5 3.1,-6.6 5.8,-5.6 1.2,0.5 1.6,2 1.6,6.2 0,5.2 0.1,5.5 2.4,5.5 1.4,0 6.6,2.1 11.6,4.6 10.8,5.6 24.5,17.8 31.4,28.2 4.8,7.3 8.6,17.2 8.6,22.4 -0.1,7.7 -6.7,16.1 -13.6,17.4 -2,0.4 -6.9,0.1 -10.9,-0.6 -8.7,-1.5 -12.2,-0.8 -23.8,4.4 -7.7,3.5 -7.7,3.6 -7.7,7.5 0,2.6 -0.5,4.1 -1.6,4.5 -2.1,0.8 -2,0.8 -3.8,-1 z m 9.6,-20.5 c 6.8,-2.6 12.7,-7.9 15.7,-14.2 2,-4.1 2.3,-6 1.9,-12.6 -0.5,-8.9 -3.7,-16.4 -9.9,-23.5 -12.8,-14.5 -34,-10.3 -42.7,8.4 -2.1,4.4 -2.6,7 -2.5,13 0.1,22.7 18,36.4 37.5,28.9 z m 38.5,-3.5 c 6.3,-4 7,-15.1 1.6,-22.7 -7.9,-10.9 -15.6,-5.1 -15.7,11.9 -0.1,8.5 0.8,10.8 4.9,12.5 2.4,1 6.2,0.3 9.2,-1.7 z"
       id="path11258" />
    <path
       d="m 142.7,385.4 c -3.2,-3.2 -4.2,-7.4 -2.7,-11.9 3.2,-9.6 15,-8.4 17.8,1.8 1.6,5.6 0.3,9 -4.5,11.5 -3.6,2 -7.8,1.4 -10.6,-1.4 z"
       id="path11260" />
    <path
       d="m 161.7,373.3 c -1.5,-1.5 -0.6,-6.3 1.3,-7.3 4.4,-2.4 7.4,1.2 5.4,6.4 -0.6,1.6 -5.4,2.2 -6.7,0.9 z"
       id="path11262" />
    <path
       d="m 130.2,371.8 c -2.1,-2.1 -1.4,-5.7 1.4,-7 2.3,-1.1 2.9,-1 4.5,1 1.3,1.6 1.6,2.9 1,4.5 -0.9,2.5 -5,3.4 -6.9,1.5 z"
       id="path11264" />
    <path
       d="m 152.5,358.6 c -6.8,-7.2 -4.8,-16.6 3.5,-16.6 9.4,0 13.7,15.1 5.4,18.9 -3.9,1.7 -5.4,1.3 -8.9,-2.3 z"
       id="path11266" />
    <path
       d="m 133.9,359.3 c -0.9,-0.2 -2.2,-1.5 -2.9,-2.9 -2,-3.5 -0.3,-7.5 4.2,-9.9 l 3.7,-2 2.8,2.1 c 7.6,5.7 1.8,15.3 -7.8,12.7 z"
       id="path11268" />
    <path
       d="m 189.4,385.7 c -0.3,-0.8 -0.4,-3 -0.2,-4.9 0.3,-2.9 0.6,-3.3 3.3,-3.3 2.3,0 3.2,0.6 3.9,2.8 0.7,1.9 0.7,3.4 0,4.5 -1.4,2.2 -6.2,2.8 -7,0.9 z"
       id="path11270" />
    <path
       d="m 58.4,401.6 c -4,-1.8 -8.2,-6 -9,-9.2 -1,-3.9 0.3,-9.4 2.7,-12.1 1.3,-1.3 4.2,-3.5 6.6,-4.9 4.8,-2.8 6.7,-6.1 5.7,-10 -0.7,-2.8 -0.7,-2.8 -5.1,-1.2 -2.6,0.9 -3.6,0.9 -4.5,0 -0.9,-0.9 -0.6,-1.8 1.5,-4 1.5,-1.5 2.7,-3.1 2.7,-3.4 0,-0.3 -1.8,-0.8 -4,-1.2 -6.1,-1 -5.3,-5.6 1.1,-5.6 2.9,0 2.3,-2.3 -1.1,-4.2 -1.7,-0.9 -3,-2.5 -3,-3.4 0,-1.4 0.7,-1.6 4.5,-1.1 5,0.7 6.5,-0.5 4.1,-3.2 -3.7,-4.1 -0.9,-7.5 3.5,-4.2 4.1,3.1 5.3,2.7 4.6,-1.3 -0.7,-4.1 1.4,-6.6 3.7,-4.6 0.8,0.6 1.6,2.1 1.8,3.3 0.2,1.3 1.1,2.3 2.4,2.5 1.7,0.2 2.3,-0.4 2.7,-2.8 0.7,-3.4 3.4,-5 4.8,-2.9 0.5,0.8 0.6,2.6 0.3,4.2 -0.8,3.8 1.9,4.7 5.1,1.7 4.1,-3.9 7.2,-0.9 3.9,3.8 -2.1,3.1 -1,4.3 3.5,3.6 3,-0.5 3.9,-0.3 4.4,1 0.5,1.2 -0.3,2.3 -2.8,3.7 -3.6,2.2 -3.8,3.9 -0.5,3.9 1,0 2.6,0.7 3.5,1.6 2.1,2.1 0.3,4.4 -3.5,4.4 -3.7,0 -4.5,2.4 -1.4,4 3.4,1.9 3.2,5 -0.4,5 -1.5,0 -3.3,-0.5 -4,-1.2 -0.9,-0.9 -1.3,-0.7 -1.8,0.6 -0.4,1 -0.2,2.2 0.5,2.9 0.6,0.6 1.1,1.9 1.1,2.9 0,2.5 -4.2,2.4 -5.8,-0.2 -1.9,-3.1 -4,-2.5 -4.4,1.3 -0.2,2.4 -0.8,3.2 -2.3,3.2 -1.4,0 -2.1,-0.8 -2.3,-2.7 -0.3,-2.1 -0.9,-2.8 -2.6,-2.8 -4.7,0 -6.2,5.2 -2.5,8.6 2.9,2.6 5.9,8.7 5.9,12 0,9.5 -10.5,15.9 -19.6,12 z m 4.3,-9.4 c 2.4,-1.5 2,-6.9 -0.7,-7.7 -3.4,-1.1 -6,0.4 -6,3.4 0,4.2 3.4,6.4 6.7,4.3 z m 15.4,-38.1 c 3,-2.4 3.2,-8.4 0.4,-10.6 -5,-3.7 -12.5,-0.7 -12.5,5 0,6.2 7.2,9.6 12.1,5.6 z"
       id="path11272" />
    <path
       d="m 301.5,395.7 c -10.3,-3.9 -18,-10.2 -24,-19.8 -3.2,-5 -5.7,-5.5 -13.9,-3 -19,5.9 -39.6,2.2 -39.6,-7.1 0,-4.3 1.5,-6.5 5.4,-7.8 2.6,-0.8 4.5,-0.8 7.8,0.1 5.8,1.7 21.7,1.7 24.6,0.1 1.2,-0.7 2.2,-2.1 2.2,-3.1 0,-2.8 -8.9,-11 -16.8,-15.3 -4,-2.2 -7.9,-4.7 -8.7,-5.5 -1.6,-1.5 -2,-8 -0.7,-9.9 1.1,-1.7 4.8,-3.4 7.4,-3.4 7.2,0 21.9,11 29.3,22 5.3,7.8 6.3,8.2 15.1,5.5 9.1,-2.8 19,-3 27.9,-0.6 10.6,2.9 14.3,5.3 15.1,9.7 0.8,4.1 -1.5,8.1 -5.1,9 -1.6,0.4 -5.7,-0.4 -10.9,-2.1 -6.9,-2.2 -9.7,-2.7 -16,-2.3 -5.5,0.2 -8,0.8 -9.3,2.1 -1.7,1.6 -1.6,1.9 0.2,5.4 2.7,5 10,10.5 17.6,13.3 8.6,3.1 10.6,5.2 10,10.7 -0.4,4.7 -8.1,5.5 -17.6,2 z"
       id="path11274" />
    <path
       d="m 604.9,392 c -3.2,-1.6 -7.1,-4.6 -8.8,-6.7 -10.9,-13.2 -6.7,-34.6 8.8,-44.4 6.4,-4.1 7.1,-3.9 7.1,2.5 0,5 -0.3,5.6 -3.6,8.1 -8.6,6.5 -8.6,18.7 0,26.2 3.5,3.2 3.6,3.4 3.6,10.3 0,3.8 -0.3,7 -0.7,7 -0.5,-0.1 -3.3,-1.4 -6.4,-3 z"
       id="path11276" />
    <path
       d="m 465.2,389.3 c -1.7,-0.6 -4.2,-5.7 -4.2,-8.3 0,-3 5.3,-8 8.5,-8 3.7,0 8.1,2.6 8.8,5.1 2,7.7 -5.6,14.2 -13.1,11.2 z"
       id="path11278" />
    <path
       d="m 360.5,387.3 c -12.2,-2.7 -19.1,-11 -18.3,-22.3 0.8,-10.7 8,-16.7 21.5,-17.7 6.3,-0.5 7.7,-1 9.3,-3.1 2.7,-3.3 2.6,-8.4 -0.1,-10.8 -6.4,-5.8 -8.8,-18.6 -5,-27 4.6,-10.2 12.8,-15.8 23.1,-15.8 8.2,-0.1 14.5,2.9 20.6,9.8 15.5,17.2 4.8,43.5 -17.8,43.6 -4.6,0 -6.2,0.5 -8.5,2.4 -3,2.6 -3.1,3.1 -2.3,20.6 0.7,14.2 -9.3,23.2 -22.5,20.3 z m 7.8,-9.6 c 4.4,-1.9 7.2,-7.2 6.3,-12 -1.3,-6.7 -10.3,-11.1 -17,-8.3 -9.1,3.8 -8.7,15.4 0.7,19.7 5,2.2 5.8,2.3 10,0.6 z M 401,330.1 c 10.4,-5.4 10.8,-18.7 0.8,-26.1 -4.7,-3.5 -13.4,-4 -18.1,-1.1 -7.1,4.4 -8.3,12.7 -3,20.9 4.9,7.5 13.2,10.1 20.3,6.3 z"
       id="path11280" />
    <path
       d="m 355.5,370 c -4,-4.4 2.7,-9.7 6.9,-5.4 0.9,0.8 1.6,2.2 1.6,2.9 0,1.9 -2.8,4.5 -4.9,4.5 -1,0 -2.6,-0.9 -3.6,-2 z"
       id="path11282" />
    <path
       d="m 389.1,326.4 c -3.5,-2.9 -3.8,-4.9 -1.5,-8.2 3.2,-4.6 12.4,-1.6 12.4,4.1 0,2.8 -0.9,4.1 -3.7,5.6 -3.1,1.6 -3.8,1.4 -7.2,-1.5 z"
       id="path11284" />
    <path
       d="m 399.6,314.9 c -0.8,-1.2 -1.2,-2.7 -0.9,-3.5 0.7,-1.9 4.2,-2.8 5.8,-1.4 2,1.6 1.9,5.6 -0.1,6.4 -2.5,1 -3.2,0.7 -4.8,-1.5 z"
       id="path11286" />
    <path
       d="m 385.8,310.4 c -1.5,-3.1 -0.2,-5.5 3.5,-6.8 2.1,-0.8 3.1,-0.6 4.7,0.9 2.5,2.3 2.6,4.7 0.2,6.8 -2.9,2.6 -7,2.2 -8.4,-0.9 z"
       id="path11288" />
    <path
       d="M 2.3,377 C 0.4,376.2 0,375.3 0,371.2 0,365.5 1.2,364 6,364 c 4.5,0 8,3 8,6.8 0,3.5 -1,4.9 -4.3,6.1 -3.3,1.3 -4.4,1.3 -7.4,0.1 z"
       id="path11290" />
    <path
       d="m 611.3,370.5 c 0,-2.2 0.2,-3 0.4,-1.7 0.2,1.2 0.2,3 0,4 -0.3,0.9 -0.5,-0.1 -0.4,-2.3 z"
       id="path11292" />
    <path
       d="m 11.6,360.8 c -3,-4.3 -1,-9.8 3.5,-9.8 2.2,0 6.9,4.2 6.9,6.2 0,2.8 -3.1,5.8 -6,5.8 -1.8,0 -3.4,-0.8 -4.4,-2.2 z"
       id="path11294" />
    <path
       d="m 0,357.2 c 0,-4.6 0.6,-5.5 3.1,-4.1 C 6.4,354.8 5,361 1.3,361 0.5,361 0,359.6 0,357.2 Z"
       id="path11296" />
    <path
       d="m 609.8,359.6 c -2.2,-2.1 -2.3,-4 -0.3,-5.6 2.1,-1.8 2.7,-0.9 2.3,3.6 -0.3,3.6 -0.4,3.7 -2,2 z"
       id="path11298" />
    <path
       d="M 461.6,358.5 C 454,355.8 447.1,346.6 447,339 c -0.1,-22.6 24.2,-33.4 38.2,-17 7.8,9 7.3,25.8 -0.9,33.2 -5.1,4.6 -15,6.1 -22.7,3.3 z m 15.5,-8.8 c 3.8,-3.2 4.9,-5.9 4.9,-11.8 0,-6.5 -2.7,-11.2 -8.1,-13.9 -4.8,-2.5 -7.6,-2.5 -11.7,0 -6.1,3.7 -9,14.6 -5.7,20.9 3.5,6.8 15.1,9.5 20.6,4.8 z"
       id="path11300" />
    <path
       d="m 466.3,347 c -2.7,-1.1 -5.3,-5.9 -5.3,-9.8 0,-9.3 13,-12.3 16.5,-3.8 3.3,7.9 -3.8,16.5 -11.2,13.6 z"
       id="path11302" />
    <path
       d="m 555,347.8 c -0.7,-2.9 -2.4,-7.5 -3.6,-10.3 -1.3,-2.7 -2.4,-5.8 -2.4,-6.8 0,-0.9 -1.2,-2.3 -2.6,-2.9 -3.1,-1.4 -2.4,-2.1 -10.9,11.2 -5.5,8.5 -7.9,10.6 -10.2,8.8 -2.2,-1.8 -1.4,-5.4 2.2,-10.4 4.1,-5.7 6.5,-10.6 6.5,-13.3 0,-1 -1.5,-3.6 -3.4,-5.7 -1.9,-2.2 -4.7,-5.4 -6.3,-7.2 l -2.8,-3.3 -9.6,1.2 c -10.5,1.2 -13.9,0.5 -13.9,-3.1 0,-2.5 0.3,-2.7 9.5,-3.9 4.3,-0.6 9,-1.8 10.3,-2.7 2.1,-1.4 2.2,-1.7 0.9,-3.7 -0.7,-1.1 -3.6,-3.4 -6.3,-4.9 -6.2,-3.5 -6.2,-3.5 -10.6,-4.3 -3.1,-0.5 -3.8,-1 -3.8,-2.9 0,-4.4 5.5,-4.8 12.5,-1 2.9,1.5 6,2.4 7.9,2.2 2.8,-0.3 3.1,-0.7 3.4,-3.9 0.3,-3.1 -0.4,-4.3 -5.2,-9.7 -6.5,-7.2 -7.8,-9.5 -7,-11.6 1.2,-3 4.5,-1.6 10.4,4.4 3.4,3.5 6.8,6 8,6 1.1,0 3.7,-1 5.8,-2.3 2,-1.3 5.3,-2.9 7.2,-3.7 5.3,-2 5.7,-2.6 6.2,-8.8 0.3,-4 1.2,-6.8 3,-9.5 1.5,-2 2.9,-5.6 3.3,-7.8 0.8,-4.4 2.7,-5.9 5,-3.9 2.2,1.9 1.8,7.1 -1,12.4 -2.8,5.3 -3.3,11.7 -1,13.9 0.8,0.9 3.3,1.8 5.5,2.2 2.2,0.4 5.6,1.8 7.5,3.1 2,1.3 4.1,2.4 4.7,2.4 1.7,0 13.7,-4.7 18.8,-7.4 5.1,-2.7 7,-2.4 7,0.9 0,2.8 -1.2,3.8 -9.1,7.6 -9.8,4.7 -12.9,8.5 -9.7,11.7 1.9,1.9 4.8,1.4 11.6,-1.8 3.5,-1.7 7.9,-3 9.8,-3 2.9,0 3.4,0.3 3.4,2.4 0,3.1 -0.7,3.5 -12.3,8.6 -10.4,4.5 -12.6,6.6 -10.5,10 1.1,1.7 2.3,2 9.1,2 8.9,0 15.3,2 14.3,4.6 -0.3,0.8 -0.6,1.8 -0.6,2 0,0.2 -4.8,0.4 -10.7,0.5 -11.3,0.1 -15.4,0.7 -16,2.5 -0.2,0.6 2,4.1 4.9,7.8 7.9,10.1 8.5,11.3 7.2,13.3 -2.2,3.4 -6.8,0.4 -12.7,-8.2 -2.7,-3.8 -5.9,-5 -8.9,-3.4 -1.4,0.8 -4.6,2.5 -7.1,3.8 -5.8,3.1 -6.6,6.1 -4.1,15.2 1,3.5 1.8,8.4 1.8,10.9 0.1,3.9 -0.2,4.5 -2,4.8 -1.9,0.3 -2.4,-0.5 -3.4,-5 z m 2,-34.5 c 5,-3.4 7,-6.6 7,-10.9 0,-6.4 -8,-12.9 -14.4,-11.7 -4,0.8 -10.3,7.4 -11.1,11.7 -0.9,4.4 0,7.1 3.3,10.1 3.3,3.1 11.3,3.5 15.2,0.8 z M 548,283 c 3.1,-3.1 2.5,-5.7 -1.7,-7.9 -2.7,-1.4 -5.6,-0.2 -7.3,2.9 -1.4,2.6 -1.3,3.6 0.6,5.4 2.1,2.2 6,2 8.4,-0.4 z"
       id="path11304" />
    <path
       d="m 201.8,336.1 c -3.1,-2.5 -5,-8 -4.1,-12.2 1.5,-7.8 13.5,-10.8 19.4,-5 4.1,4.1 4.1,10.7 0.1,15.2 -3.8,4.3 -11.3,5.2 -15.4,2 z"
       id="path11306" />
    <path
       d="m 287,330.3 c -7.8,-2.5 -11,-8.9 -7.7,-15.3 2.8,-5.3 2.8,-6 0,-8.6 -2.1,-2 -3.6,-2.4 -8.5,-2.4 -6.7,0 -11.9,-2.2 -16.4,-7 -4.8,-5 -7.8,-3.8 -11.3,4.3 -2.3,5.3 -5.3,7.7 -9.8,7.7 -4.5,0 -7.5,-1.6 -10,-5.3 -3.5,-5.2 -3.4,-11.2 0.2,-15.5 3.5,-4.1 7.7,-4.8 13.4,-2 2.5,1.2 5.3,2.1 6.1,1.9 2.2,-0.5 4.4,-4.1 5.2,-8.6 0.3,-2.2 0.9,-5.8 1.3,-8 1,-6.3 -0.9,-8.1 -8.4,-7.7 -5.4,0.3 -6.4,0 -8.6,-2.2 -5,-5 -2.7,-14.4 4.5,-18.1 4.3,-2.2 7.6,-1.8 11.2,1.4 2.9,2.6 3.3,3.5 3.4,8.6 0.1,3.6 0.6,6 1.5,6.6 1.9,1.2 5.6,1.1 6.4,-0.1 0.4,-0.6 2.2,-1.7 4.2,-2.5 7.5,-3.2 8.3,-8.2 2.2,-13.5 -3.2,-2.7 -4.2,-4.4 -4.6,-7.6 -0.5,-3.7 -0.2,-4.6 3,-8 3.3,-3.6 3.9,-3.9 8.9,-3.8 4,0 6.3,0.6 8.6,2.2 5.9,4.2 5.2,13.7 -1.4,18.7 -5.2,3.9 -4.5,7.2 2.1,10.3 6.4,3 9.1,5.6 12.1,11.4 3.5,6.8 8,7.6 10.4,1.7 3.1,-7.4 13.1,-10.6 17.8,-5.6 3.1,3.3 5.3,9.3 4.6,12.5 -0.9,3.9 -5.1,7.9 -8.9,8.6 -3.7,0.7 -9.2,-1.1 -11.4,-3.7 -3.2,-3.9 -9,-0.1 -11,7 -0.6,2.4 -3,6.3 -5.2,8.9 -4.4,5.1 -4.6,7.4 -1,8.9 8.7,3.6 10.6,5 12,9.2 1.3,3.7 1.3,4.5 -0.4,8.2 -2.4,5.5 -9.5,9.1 -14.5,7.4 z m 6.1,-12.3 c 2.5,-1.4 2.4,-4.6 -0.1,-6 -2.7,-1.5 -6,0.4 -6,3.4 0,3.7 2.2,4.6 6.1,2.6 z m -57.6,-21 c 3.5,-3.9 -1.1,-8.8 -6.3,-6.9 -2.9,1.1 -3.7,3.4 -2.4,6.5 1.4,3 6.1,3.3 8.7,0.4 z m 40.6,-11.1 c 5.7,-1.9 9.6,-5.5 10.3,-9.3 2.3,-12.1 -15.7,-19.2 -23.8,-9.5 -4.8,5.7 -2.5,14.7 4.5,18.2 4.1,2 4.6,2 9,0.6 z m 42.3,-14.2 c 3.6,-2.6 -0.4,-8.4 -4.1,-6.1 -2.2,1.4 -2.9,5.4 -1.1,6.5 1.8,1.2 3.1,1.1 5.2,-0.4 z m -74,-19.2 c 2.7,-2.8 -0.5,-6.2 -4.5,-5 -2.1,0.7 -2.5,3.5 -0.7,5.3 1.6,1.6 3.3,1.5 5.2,-0.3 z M 276,236.2 c 4,-3.3 -0.4,-8.8 -5.5,-6.9 -2.4,1 -3,5.6 -0.9,7.2 2.5,1.9 3.8,1.8 6.4,-0.3 z"
       id="path11308" />
    <path
       d="m 269,276.2 c -2.5,-2 -3,-6.3 -1,-8.7 1.4,-1.7 7.7,-2 10,-0.6 2.1,1.4 1.8,8 -0.5,9.7 -2.6,1.9 -5.8,1.8 -8.5,-0.4 z"
       id="path11310" />
    <path
       d="m 328.5,328.5 c -7,-3.8 -11.4,-10.7 -11.5,-18 0,-8.4 7.9,-15.6 17.8,-16.2 7.8,-0.5 12.6,2.3 16.4,9.6 4.8,9.1 3.3,18.2 -3.9,23.1 -4.6,3.1 -14.3,3.9 -18.8,1.5 z M 345,320 c 3,-3.5 3.4,-6.6 1.6,-11.5 -2.8,-7.3 -10.1,-10.4 -16.5,-7.1 -11.6,6 -5.3,22.5 8.2,21.3 3.4,-0.3 5.3,-1.1 6.7,-2.7 z"
       id="path11312" />
    <path
       d="m 332.3,319 c -2.6,-1.1 -4.3,-4 -4.3,-7.5 0,-4.6 1.7,-6.5 5.8,-6.5 7.5,0.1 11.7,7.6 6.9,12.4 -2.7,2.7 -4.7,3.1 -8.4,1.6 z"
       id="path11314" />
    <path
       d="m 108.4,322 c -4.5,-1.8 -6.8,-9.1 -4.8,-14.5 1.6,-4 10.1,-5.7 15.4,-3 5.6,2.9 5.1,12.2 -1,16.3 -3.5,2.3 -6.1,2.7 -9.6,1.2 z"
       id="path11316" />
    <path
       d="M 28.3,319.4 C 20,316.3 13,307 13,299 c 0,-10.1 7.2,-16.6 21.7,-19.5 20.6,-4 29.4,-8.6 43.6,-22.6 9.3,-9.3 13,-10.9 20.2,-8.9 5.3,1.5 11.5,6.9 13.5,11.8 0.7,1.9 1.1,5.5 0.8,8.7 -1.5,18 -24.7,39.8 -52.5,49.1 -9.9,3.3 -25.5,4.2 -32,1.8 z m 16.1,-7 C 45.5,309.5 45,301 43.5,297.3 41,291.4 37.2,287 34.5,287 c -3.4,0 -3.8,1.4 -1,4 4.8,4.5 7.9,16.5 5.5,21.1 -0.9,1.7 -0.7,1.9 1.9,1.9 1.7,0 3.1,-0.6 3.5,-1.6 z m 15.4,-3.2 c 2,-2.5 0.9,-10.9 -2.1,-16.8 -3.2,-6.2 -6.8,-9.4 -9.9,-8.7 -4.9,1.1 -5,1.2 -2.5,3.9 4.2,4.5 7.1,11.5 7.5,18.2 0.4,6.3 0.5,6.3 3.1,5.7 1.4,-0.3 3.2,-1.4 3.9,-2.3 z m -27.4,0.2 c 1.5,-3.8 0.5,-8.3 -2.6,-12.5 -4.1,-5.3 -5.5,-5.8 -6.8,-2.3 -1.5,3.9 -0.3,8.1 3.7,12.5 3.9,4.3 4.8,4.7 5.7,2.3 z m 39,-4.5 c 1.3,-0.6 2.7,-2 2.9,-3.1 0.8,-2.9 -1.9,-12.3 -4.9,-16.8 -3.8,-5.6 -6.4,-7.2 -10.2,-5.8 l -2.9,1.1 2.9,2.5 c 4.1,3.5 8.7,13.1 9,18.7 0,2.5 0.3,4.5 0.4,4.5 0.2,0 1.4,-0.5 2.8,-1.1 z m 14.8,-9.6 C 91,291 85.8,278.5 76.7,272.6 74.3,271 74,271 71.6,272.5 l -2.5,1.6 4,3.7 c 4.6,4 8.7,11.5 9.1,16.1 0.3,3.5 1.3,3.9 4,1.4 z m 13.8,-15 c 0,-3.3 -3.6,-8.7 -8.3,-12.4 -5.1,-4.1 -8,-4.7 -10.9,-2.5 -1.6,1.2 -1.3,1.6 3,4.3 5.3,3.3 11.2,11.2 11.2,15.2 l 0.1,2.6 2.4,-2.8 c 1.4,-1.5 2.5,-3.5 2.5,-4.4 z m 5.1,-15.4 c -0.8,-2.6 -2.4,-4.7 -4.9,-6.4 -4.1,-2.8 -6.6,-3.1 -10,-1.1 -2.3,1.2 -2.3,1.3 1.6,2.4 4,1.2 12.2,8.9 12.2,11.4 0,0.7 0.6,0.5 1.2,-0.6 0.7,-1.3 0.7,-2.9 -0.1,-5.7 z"
       id="path11318" />
    <path
       d="m 172.8,314 c -3.2,-2.4 -4.5,-7.8 -2.8,-11 0.6,-1.2 2.7,-2.8 4.7,-3.6 9.1,-3.8 16.1,5.4 9.6,12.6 -3.7,4 -8,4.8 -11.5,2 z"
       id="path11320" />
    <path
       d="m 448.2,294.9 c -2.4,-0.4 -7.6,-2.7 -11.5,-5 -25.7,-15.2 -28.9,-16.1 -54.5,-16.7 l -20.3,-0.4 -4.2,-3.2 c -2.9,-2.2 -4.9,-4.9 -6.4,-8.6 -2.8,-6.9 -2.8,-11.1 0,-18 4,-9.9 16.5,-16.2 35.7,-18.1 18.4,-1.8 39.5,2.6 59,12.4 21.8,10.9 31.4,26.3 26.7,42.8 -3.3,11.1 -13.1,17.1 -24.5,14.8 z m 9.5,-10.6 c 3.5,-2.3 5.3,-7.1 5.3,-14.3 0,-5.3 -0.2,-6 -1.9,-6 -4.6,0 -10.1,8.9 -10.1,16.2 0,5.9 2,7.2 6.7,4.1 z m -11.2,-15.1 c 2.4,-6.3 5,-9.9 8.7,-11.8 l 3.1,-1.6 -2.6,-2.6 -2.6,-2.5 -3.6,2.7 c -6.6,5.1 -11.5,15.3 -11.5,24.2 0,3.7 0.4,4.5 2.8,5.8 l 2.7,1.4 0.6,-5.4 c 0.4,-3 1.4,-7.6 2.4,-10.2 z m -13,-8.6 c 1.3,-4.1 3.2,-7.4 6.2,-10.5 2.4,-2.4 4.3,-4.6 4.3,-4.8 0,-0.7 -6.1,-3.3 -7.9,-3.3 -2.9,0 -9.5,8.2 -11.4,14.1 -0.9,2.8 -1.7,7.9 -1.7,11.3 0,6 0,6.1 3.8,8.1 l 3.7,2 0.6,-5.5 c 0.3,-3 1.4,-8.2 2.4,-11.4 z m -18.1,6.7 c -1.4,-7.2 2.8,-20.7 8.3,-26.4 2.7,-2.9 2.4,-3.3 -2.4,-4.3 -2.5,-0.6 -3.5,-0.3 -5.3,1.6 -5.9,6.2 -9.7,17.5 -8.6,25.2 0.5,3.4 1.2,4.5 3.4,5.3 4.5,1.8 5.2,1.6 4.6,-1.4 z M 399.2,258 c -0.5,-9 1.1,-14.9 5.3,-20.4 l 2.5,-3.4 -2.2,-0.6 c -4.9,-1.3 -6.8,-0.6 -9.7,3.4 -4.1,5.6 -5.9,16.5 -3.9,22.9 1.2,3.8 1.9,4.7 4.3,5.2 1.7,0.4 3.2,0.7 3.5,0.8 0.3,0 0.4,-3.5 0.2,-7.9 z m -29.2,5.5 c 0,-0.3 -0.9,-2.4 -2.1,-4.6 -1.7,-3.4 -2,-5.6 -1.7,-12 0.2,-4.4 0,-7.9 -0.5,-7.9 -1.2,0 -5.1,4.9 -5.9,7.3 -0.3,1.2 -0.6,3.9 -0.7,6.1 -0.1,3.2 0.5,4.5 3.8,7.7 3.3,3.3 7.1,5.1 7.1,3.4 z m 15,0.1 c 0,-0.2 -0.7,-2.3 -1.5,-4.6 -0.8,-2.3 -1.5,-6.4 -1.5,-9 0,-5.1 2.7,-15 4.2,-15 0.4,0 0.8,-0.4 0.8,-1 0,-1.3 -5.6,-1.3 -8.1,0 -1,0.6 -2.6,2.5 -3.5,4.2 -2.1,4.1 -1.5,16.7 1,22.1 1.6,3.2 2.3,3.7 5.2,3.7 1.9,0 3.4,-0.2 3.4,-0.4 z"
       id="path11322" />
    <path
       d="m 188.5,288.3 c -2.2,-0.9 -4.2,-1.9 -4.5,-2.2 -0.7,-0.8 -4.7,-3.1 -9.4,-5.4 -5.6,-2.7 -12.3,-1.9 -22.1,2.7 -9.3,4.4 -13,4.3 -17.8,-0.5 l -3,-3 0.7,-12.3 c 0.7,-13.7 0.1,-16.8 -4.8,-23.1 -1.7,-2.2 -3.3,-4.2 -3.7,-4.5 -1.3,-1 -2.9,-4.9 -2.9,-7 0,-2.9 2.9,-9 4.4,-9 2.6,0 13.6,-6.1 15.1,-8.3 0.9,-1.4 2,-5.4 2.5,-8.9 1.4,-9.9 5,-11.5 17.8,-8.3 5.8,1.5 6.3,1.5 11.9,-0.6 3.2,-1.2 8.2,-2.3 11.1,-2.3 4.8,-0.1 5.7,0.2 8.1,3 1.6,1.7 3.1,4.9 3.5,7 1.2,6.5 4.4,10.1 12.1,13.8 8.8,4.2 10.7,6.3 11.3,12.5 0.7,7.2 -0.2,9.3 -5.9,14.7 -7.7,7.4 -8.1,8.5 -7.7,23.4 l 0.3,12.9 -3,3.1 c -3.8,3.8 -8.6,4.6 -14,2.3 z m 6,-13 c 2.6,-2.7 2.7,-3 2.1,-10.4 -0.7,-7.5 -0.7,-7.7 3.3,-15.3 5.2,-9.7 5.4,-14.2 1.1,-20.9 -3.4,-5.3 -11.9,-11.4 -20.9,-14.8 -10,-3.8 -21.6,-1 -32.9,8 -9.7,7.8 -10.9,12.1 -6.7,24.3 2.3,6.4 2.5,8.2 1.9,15.9 l -0.7,8.6 3.2,2.2 3.1,2.2 8,-2 c 10.9,-2.9 14.3,-2.6 22,1.4 8.2,4.3 12.7,4.5 16.5,0.8 z"
       id="path11324" />
    <path
       d="m 177.2,267.8 c -5.4,-2.6 -13.9,-10.9 -15.8,-15.4 -1.9,-4.5 -0.5,-7.4 3.6,-7.4 2,0 3.4,0.8 4.7,2.7 3.5,5.2 9.6,10.4 15.2,13.1 4.2,2 5.7,3.3 5.9,5.1 0.2,1.3 -0.2,2.8 -1,3.2 -2.3,1.5 -8.1,0.9 -12.6,-1.3 z"
       id="path11326" />
    <path
       d="m 149.8,266.9 c -2.1,-1.2 -2.5,-7.8 -0.6,-9.7 1.8,-1.8 6.3,-1.4 8.1,0.6 4.8,5.2 -1.5,12.7 -7.5,9.1 z"
       id="path11328" />
    <path
       d="m 179.2,247.3 c -4.6,-2.3 -10.9,-9.7 -11.6,-13.9 -0.8,-4.2 -0.1,-7.1 2.7,-10.1 4.1,-4.6 14.2,-2 23,5.8 3.8,3.3 4.1,4 4.1,8.7 0,4.4 -0.5,5.7 -2.9,8.2 -2.4,2.5 -3.7,3 -7.4,3 -2.5,0 -6.1,-0.8 -7.9,-1.7 z"
       id="path11330" />
    <path
       d="m 149,243.3 c -5.4,-2 -6.9,-9.2 -2.7,-13.1 3.8,-3.6 7,-4.3 10.8,-2.4 2.6,1.3 3.5,2.5 3.9,5.2 0.8,4.7 -0.6,7.6 -4.5,9.5 -3.4,1.6 -4.9,1.7 -7.5,0.8 z"
       id="path11332" />
    <path
       d="m 12.3,265.4 c -2,-2 -2.4,-3.1 -1.9,-5.6 0.3,-1.8 0.7,-3.2 0.9,-3.3 0.1,-0.1 2.9,-2.2 6.2,-4.8 9.1,-7 15.1,-15.5 12.8,-17.8 -2,-2 -12.9,-1.1 -20.6,1.6 C 5.6,236.9 1.8,238 1.2,238 0.4,238 0,235.6 0,230.7 v -7.3 l 5.3,-1.8 c 5.2,-1.7 13.9,-2.3 25.1,-1.7 5.2,0.3 6.1,0.1 7.7,-2 1,-1.3 1.9,-3.1 1.9,-3.9 0.1,-3.6 7.7,-12.6 14.4,-17.2 7.6,-5.2 12.4,-6.7 16.2,-4.9 2.1,0.9 2.5,1.7 2.2,4.7 -0.3,3.4 -0.9,4 -7.3,7.9 -11.2,6.8 -17.7,18 -11.5,20 3.6,1.1 14.5,-1.4 21.4,-5 5,-2.6 7.6,-3.4 9.6,-3 3.7,0.8 5.4,4.7 4,9 -0.9,2.6 -2.4,3.8 -8.3,6.7 -10.1,5 -10.8,5.2 -24.2,5.2 l -12,0.1 -3,6 c -3.7,7.4 -9.5,15.5 -13.1,18.1 -1.4,1 -3.1,2.4 -3.8,3 -4.3,4 -8.8,4.3 -12.3,0.8 z"
       id="path11334" />
    <path
       d="m 491.5,245.6 c -1.7,-1.2 -1.7,-2 -0.7,-9.2 0.6,-4.3 0.8,-8.2 0.6,-8.6 -1.2,-1.9 -2.7,-0.5 -4.9,4.6 -2.4,5.4 -4.3,7 -7,6 -2.1,-0.8 -1.9,-5.4 0.5,-10.9 1.1,-2.6 1.8,-5.1 1.5,-5.6 -0.3,-0.4 -3.3,1.2 -6.7,3.7 -6.8,5 -10.1,5.4 -10.6,1.4 -0.2,-2 0.8,-3.4 5.2,-7 6,-4.9 6,-4.9 4.7,-6.9 -0.7,-1.1 -1.7,-1.1 -6.1,0 -4.8,1.2 -5.3,1.2 -6.6,-0.5 -1.9,-2.7 -0.2,-5.3 4.6,-6.7 3.1,-1 4,-1.7 4,-3.5 0,-2 -0.6,-2.3 -5.7,-2.9 -9,-0.9 -10.1,-1.3 -10.9,-3.7 -1.1,-3.7 2,-5.1 9.9,-4.3 5.5,0.5 6.7,0.4 6.7,-0.8 0,-2 -2.7,-4 -4.1,-3.1 -0.7,0.4 -0.9,0.3 -0.5,-0.4 0.3,-0.5 -0.5,-1.9 -1.8,-2.9 -2.3,-1.7 -3,-3.2 -2.7,-6 0.2,-2.1 4.9,-1.4 9.1,1.3 3.8,2.5 6,2.5 6,0 0,-0.6 -2,-3.2 -4.5,-5.6 -5,-4.9 -6.1,-9.4 -2.6,-10.5 2.5,-0.8 4.6,0.6 9.9,6.7 4.7,5.4 6.1,4.8 4.3,-1.9 -1.5,-5.4 -1.4,-9 0.5,-9.7 2.8,-1.1 4.9,1.1 6.7,6.8 2.7,8.4 4.7,7.6 4.7,-1.8 0,-7.2 1.3,-10.6 4,-10.6 2.7,0 4,3.4 4,10.6 0,6.4 0.2,7.4 1.8,7.4 1.2,0 2.2,-1.5 3.2,-4.8 1.3,-3.9 1.9,-4.8 4.3,-5 3.6,-0.4 4.2,1.5 2.7,7.8 -0.7,2.8 -0.9,5.4 -0.6,5.7 0.4,0.4 3.2,-1.9 6.4,-5 6.1,-6.1 8.5,-6.9 10.2,-3.7 1.3,2.5 0.7,3.6 -5.2,9.8 -5.9,6.2 -5.2,8.2 1.7,5.2 2.7,-1.2 6.3,-2 7.9,-1.8 2.6,0.2 3.1,0.7 3.1,2.8 0,2.1 -1,3 -6.3,5.4 -3.4,1.7 -6.1,3.5 -5.9,4 0.2,0.6 2.5,1.1 5.2,1.1 8.3,0 9.1,5.6 1,7.6 -2.5,0.6 -4.4,1.6 -4.2,2.2 0.2,0.6 3.4,1.9 7,2.8 3.7,0.9 7.4,2.2 8.2,2.9 2,1.7 1.9,4.9 -0.2,5.7 -1.4,0.6 -8.3,-0.5 -15,-2.3 -1.8,-0.5 -2.3,-0.2 -2.3,1.2 0,1.2 1.8,2.9 5.1,4.7 4.3,2.4 5,3.1 4.7,5.5 -0.4,3.7 -3.7,4 -9.3,0.8 -7.4,-4.4 -8.4,-3 -3.4,4.8 3.7,5.9 3.7,10.1 -0.1,10.1 -1.8,0 -3.4,-1.4 -6.3,-5.5 -4.9,-7 -6.3,-7.1 -5.9,-0.4 0.3,4 0,5.3 -1.2,5.7 -2.7,1.1 -4.4,-0.3 -6.2,-4.9 -2.5,-6.6 -3.5,-5.9 -4.9,3.6 -0.9,6.6 -1.4,7.9 -3.4,9 -1.3,0.6 -2.4,0.5 -3.6,-0.4 z m 19.3,-30.3 c 8.7,-6.5 9.4,-18.8 1.7,-28.9 -9.5,-12.5 -32,-5 -31.8,10.5 0.1,8.4 6.9,17.6 14.8,20.1 4.5,1.4 12.3,0.6 15.3,-1.7 z"
       id="path11336" />
    <path
       d="m 496.6,213.4 c -2,-1.9 -2,-2.8 -0.2,-4.4 2.4,-1.9 6.1,-0.8 6.4,1.9 0.6,3.8 -3.3,5.4 -6.2,2.5 z"
       id="path11338" />
    <path
       d="m 506.8,207.9 c -2.1,-1.2 -2.4,-5.9 -0.6,-7.7 1.8,-1.8 5.6,-1.4 6.8,0.7 1.4,2.8 1.3,3.8 -1,6.1 -2.3,2.3 -2.8,2.4 -5.2,0.9 z"
       id="path11340" />
    <path
       d="m 488.8,204 c -2.2,-1.3 -4,-7.2 -3.2,-10.4 0.3,-1.4 2,-3.7 3.6,-5.1 6.3,-5.3 13.8,-1.6 13.8,6.8 0,6.4 -2.9,9.7 -8.3,9.7 -2.3,0 -5,-0.5 -5.9,-1 z"
       id="path11342" />
    <path
       d="m 610,237.2 c -2.2,-0.7 -3.9,-3.4 -4,-5.9 0,-2.4 4.4,-8.2 5.5,-7.2 0.3,0.4 0.5,3.6 0.3,7.1 -0.2,5.2 -0.6,6.4 -1.8,6 z"
       id="path11344" />
    <path
       d="m 311.6,233 c -7.4,-2.3 -13.6,-9.8 -13.6,-16.3 0,-3.7 2.3,-8.9 5.9,-13.4 5.3,-6.7 8.3,-14.7 10.1,-27.7 2.7,-18.4 4.8,-24.6 10.6,-31.5 8.6,-10.3 25.1,-10.5 34.3,-0.6 2.3,2.5 4.1,4.9 4.1,5.5 0,0.6 0.3,0.9 0.8,0.7 1.1,-0.7 1.6,4.6 1.7,15.8 0,11.1 -1.9,18.2 -8.2,31 -11.6,23.2 -33.1,40.4 -45.7,36.5 z m 13.5,-12.1 c 4.8,-2.4 14.1,-11.5 18.8,-18.2 1.8,-2.6 4.8,-8.1 6.7,-12.1 10.2,-22.1 8.1,-38.7 -5.2,-41.2 -5.3,-1 -14,3.8 -18.1,9.9 -3.1,4.6 -4.1,8.1 -7.2,25.4 -1.4,7.4 -3.3,11.8 -8.4,19.4 -4.1,6.2 -4.7,10.1 -2,13.9 3.8,5.6 8.5,6.5 15.4,2.9 z"
       id="path11346" />
    <path
       d="m 316.6,216.7 c -2.5,-1.8 -2.5,-7 -0.1,-9.7 1.9,-2.1 6.9,-2.7 9.3,-1.2 0.7,0.5 1.5,2.4 1.8,4.3 0.4,2.6 0.1,3.8 -1.3,5.1 -2.7,2.5 -7.4,3.2 -9.7,1.5 z"
       id="path11348" />
    <path
       d="m 331.1,207.6 c -0.7,-0.8 -1,-2.4 -0.6,-3.6 0.8,-2.5 6.2,-2.8 7.2,-0.4 1.4,3.8 -4.1,7.1 -6.6,4 z"
       id="path11350" />
    <path
       d="m 323,201.3 c -3.4,-1.3 -4,-5.7 -1,-7.3 4.2,-2.2 8.2,3.4 4.8,6.8 -1.3,1.3 -1.5,1.3 -3.8,0.5 z"
       id="path11352" />
    <path
       d="m 334.4,198.3 c -4.8,-0.9 -5.7,-9.1 -1.8,-16.2 4.2,-7.7 9.5,-10.4 13.7,-7 2.1,1.6 2.7,2.9 2.7,6 0,5.9 -4.5,14.4 -8.5,16.4 -1.8,0.8 -3.5,1.4 -3.7,1.4 -0.1,-0.1 -1.3,-0.4 -2.4,-0.6 z"
       id="path11354" />
    <path
       d="m 327.8,174.9 c -3.7,-2.1 -1.3,-9.9 3,-9.9 2.9,0 6.2,3 6.2,5.5 0,2.5 -3.3,5.5 -6,5.5 -0.8,0 -2.3,-0.5 -3.2,-1.1 z"
       id="path11356" />
    <path
       d="m 340.5,167.8 c -5.1,-2.7 -5.9,-7.5 -1.9,-10.7 6.4,-5.1 15.2,-0.2 12.8,7.1 -1.4,4.4 -6.4,6.1 -10.9,3.6 z"
       id="path11358" />
    <path
       d="m 567.4,219.6 c -6,-2.8 -10.8,-8.3 -13,-14.9 -1.6,-4.8 -1.6,-6.3 0.2,-18.9 0.6,-4.3 0.3,-5.4 -2.7,-10.2 -1.8,-3 -3.5,-5.3 -3.8,-5.1 -0.8,0.4 -1.5,-4.8 -1.5,-11 0.1,-8.7 6.2,-17.1 15.9,-21.7 7.3,-3.4 14.6,-3.7 23,-0.8 7.4,2.6 8.7,2.5 14.6,-0.5 2.7,-1.3 6.5,-2.7 8.4,-3.1 l 3.5,-0.6 v 4.6 c 0,4.1 -0.2,4.6 -2.2,4.6 -6.4,0.1 -9.9,9 -6.3,15.9 0.8,1.6 3,3.6 5,4.5 2.8,1.4 3.5,2.2 3.5,4.6 0,2.5 -0.4,3 -2.3,3 -2.7,0 -5.7,2.8 -5.7,5.3 0,2.2 3.7,4.6 6.2,3.9 2,-0.5 2,-0.2 1.4,4.9 -0.8,6.1 -0.8,7.8 0,16.6 l 0.6,6.2 -3.5,-0.6 c -4.5,-0.7 -9,1.7 -14.4,7.7 -2.3,2.6 -5.8,5.5 -7.7,6.4 -5,2.4 -13.1,2 -19.2,-0.8 z m 18.9,-6.4 c 2.4,-2.1 2.1,-4.4 -0.7,-7.1 -2.8,-2.6 -5.9,-2.2 -8.8,1.2 -2.7,3.1 -2.2,5.3 1.7,7.5 2.3,1.3 5.2,0.7 7.8,-1.6 z M 575.5,200 c 1.4,-1.5 1.6,-2.9 1.2,-6.2 -0.4,-2.7 0.1,-6.7 1.1,-10.6 l 1.7,-6.4 -2.9,-2.5 c -6.5,-5.5 -14.6,1.8 -14.6,13.2 0,10.9 8.1,18.4 13.5,12.5 z m 24.5,-1.7 c 4.3,-3.9 4.9,-8.7 1.8,-13.3 -5.8,-8.6 -18.4,-2.2 -16.4,8.4 1.4,7.2 9.1,9.8 14.6,4.9 z m -3.2,-25.9 c 3,-3.5 3.1,-10.8 0,-14.1 -2.4,-2.6 -8.2,-3.1 -10.9,-1 -5.6,4.3 -4.9,13.9 1.2,17.3 3.1,1.8 6.9,0.9 9.7,-2.2 z m -25.7,-7.7 c 6.6,-4.4 7.5,-9.6 2.5,-15 -5.3,-5.7 -15.2,-1.4 -16.3,7 -0.5,3.7 -0.2,4.6 2.5,7.3 3.6,3.6 6.7,3.8 11.3,0.7 z m 15.7,-13.6 c 0.8,-0.4 1.2,-1.9 1,-3.2 -0.2,-1.9 -0.9,-2.4 -3.3,-2.4 -2.4,0 -3.1,0.5 -3.3,2.4 -0.4,2.3 1.1,4.1 3.3,4.1 0.6,0 1.6,-0.4 2.3,-0.9 z"
       id="path11360" />
    <path
       d="M 237.7,214.3 C 237.3,214 237,212 237,210 c 0,-2.1 -0.7,-5.4 -1.5,-7.3 -0.8,-2 -1.5,-5.9 -1.5,-8.6 0,-2.7 -0.5,-5.3 -1.1,-5.6 -1.9,-1.2 -5.6,3.5 -7.3,9.3 -2.5,9.1 -5.6,12.3 -8.5,8.8 -1,-1.2 -0.7,-3.2 1.4,-9.7 1.4,-4.6 3.4,-9.7 4.4,-11.4 2.5,-4.1 1.7,-6.1 -1.5,-4 -1.3,0.8 -5.2,2.3 -8.6,3.1 -3.5,0.9 -7.5,2.3 -9,3 -3.5,1.8 -5.7,1.8 -6.5,-0.1 -0.9,-2.5 2.4,-5.2 9.4,-7.7 6.7,-2.3 12.8,-6.8 12.1,-8.9 -0.3,-0.8 -3.4,-1.3 -8.4,-1.5 -4.3,-0.2 -10.1,-0.9 -12.9,-1.6 -4.3,-1.1 -5,-1.6 -5,-3.8 v -2.5 l 11.5,0.4 c 10.4,0.3 11.7,0.1 13.3,-1.6 3.7,-4.2 -0.5,-7 -12.2,-8.4 -8,-0.9 -10.3,-2.2 -9.9,-5.3 0.2,-1.6 0.9,-2 2.8,-1.8 1.4,0.1 5.9,0.5 10,0.7 4.1,0.3 9.3,1.2 11.4,2.1 6,2.3 6.5,0.5 1.8,-6.5 -7,-10.6 -9,-18.3 -4.7,-18.8 1.6,-0.2 3.1,1.7 7,8.4 5.6,9.6 8.5,12.3 11.1,10.2 2.1,-1.8 1.2,-7.4 -2.5,-15.1 -2.7,-5.5 -3,-9.1 -1,-10.4 1.3,-0.8 4.9,0.5 4.9,1.8 0,0.5 1.6,4.3 3.5,8.4 1.9,4 3.5,8 3.5,8.9 0,2.7 3.7,1.7 4.4,-1.2 0.4,-1.4 2,-4.5 3.6,-6.8 1.6,-2.3 3.7,-6.1 4.6,-8.4 1.3,-3.3 2.1,-4.1 3.8,-3.9 3.3,0.5 3.1,4.2 -0.8,11.8 -2,3.8 -3.6,7.8 -3.6,8.9 0,5.1 2.6,6.5 5.9,3.2 6.4,-6.4 15.7,-13.1 18.3,-13.1 4.5,0 3.8,4.1 -1.4,8.2 -5.9,4.7 -10.8,9.5 -10.8,10.5 0.1,4.9 6.7,3.9 14.8,-2.2 5.7,-4.3 10.3,-5.7 11.6,-3.6 1,1.5 -0.4,3.8 -2.8,4.9 -3.8,1.7 -15.6,12.6 -15.6,14.4 0,2.6 5.9,4 13.2,3.1 9.7,-1.2 12.8,-0.1 10.8,3.8 -0.9,1.6 -9.5,3.3 -21,4.1 -4.6,0.4 -5,2.8 -1,6.7 2.2,2 4.7,3.2 7.7,3.7 2.5,0.4 5.7,1.7 7.4,3.1 5.7,4.8 2.5,7.9 -4.5,4.4 -2.4,-1.1 -5.8,-2.1 -7.7,-2.1 -1.9,0 -4.8,-1.1 -7.1,-2.7 -3,-2 -4.1,-2.4 -5.1,-1.4 -1.6,1.6 0.9,6 7.8,13.8 5.6,6.3 6.7,8.9 3.9,10 -2.6,1 -6.5,-1.9 -13.2,-9.9 -7.9,-9.4 -9.7,-9.5 -8.8,-0.4 2,20.1 2,20.5 0.2,21.2 -3,1.2 -4.8,-2 -5.6,-9.8 -0.8,-8.2 -2.5,-12.5 -5,-13.3 -4.7,-1.5 -7.1,3.1 -5.2,10.2 1.3,4.8 1.5,9.3 0.6,11.7 -0.6,1.6 -3.5,2.2 -4.7,0.9 z m 14.6,-32.9 c 10.7,-5.5 16,-15.2 12.8,-23.6 -2.5,-6.7 -13.1,-12.3 -20.8,-11.1 -11.3,1.7 -19.4,11.3 -17.4,20.5 1.6,6.7 6.5,12.9 12.1,15.1 3,1.1 10.2,0.7 13.3,-0.9 z"
       id="path11362" />
    <path
       d="m 234.6,169.9 c -2.1,-1.7 -2.6,-2.9 -2.6,-6.6 0,-3.7 0.5,-5 3.1,-7.4 3.9,-3.6 8.7,-4.6 12.7,-2.5 4.8,2.5 6.3,10.1 2.9,14.7 -3.2,4.3 -11.7,5.3 -16.1,1.8 z"
       id="path11364" />
    <path
       d="m 386.3,208.8 c -7.7,-3.7 -4.1,-24.5 6.8,-40.5 3.6,-5.2 3.6,-7.6 0,-12.2 -8.2,-10.5 -11.1,-18.5 -11.1,-31.2 0,-8.2 1.5,-11.5 5.5,-12 5.9,-0.8 8.5,2.9 8.5,12.4 0.1,7.1 1.6,12.1 5.6,17.8 3.9,5.7 7,5.2 10.4,-1.6 2,-4.1 2.5,-6.9 3,-16.8 0.5,-11.1 0.7,-12 3,-13.9 2.9,-2.3 7.4,-1.8 10.4,1.2 2.4,2.4 3.4,15.2 1.7,23 -1.2,5.6 -5.9,17 -7,17 -0.4,0 -1.7,2 -3.1,4.5 l -2.4,4.4 2.4,3.3 c 7.1,9.5 11.2,16.5 13,22.6 4.3,13.7 2.5,21.2 -5,21.2 -4.6,0 -7.6,-3.1 -8.6,-8.9 -1.1,-7.1 -3.5,-14.2 -6.2,-18.8 -5.8,-9.8 -10.7,-4.5 -14.2,15.3 -1.1,6 -2,11 -2,11.1 0,0.6 -6.1,3.3 -7.2,3.2 -0.7,0 -2.3,-0.5 -3.5,-1.1 z"
       id="path11366" />
    <path
       d="M 0.7,207.3 C 0.3,207 0,204.5 0,201.8 c 0,-4.9 0,-4.9 2.2,-3.4 6.1,4.3 15.8,-1.2 15.8,-8.8 0,-7.8 -8.7,-11.2 -14.9,-6 L 0,186.2 v -3.6 c 0,-2 0.7,-4.8 1.6,-6.1 1.5,-2.3 1.5,-2.7 0,-5 -2.7,-4.2 -2,-6.8 2.4,-8.8 5.4,-2.5 7.5,-6.6 5.9,-11.4 C 8.7,147.6 3.6,142 1.4,142 0.4,142 0,140.7 0,137.9 c 0,-4.1 0,-4.1 3,-3.5 5.2,1 11.6,6.1 14,11.1 2.8,5.8 2.5,13.8 -0.8,18 -3.2,4.1 -2.7,6 2.7,11.3 5.8,5.6 7.7,10.8 6.2,17.2 -2.1,9.3 -9.9,16 -18.6,16 -2.9,0 -5.5,-0.3 -5.8,-0.7 z"
       id="path11368" />
    <path
       d="m 107.2,200.8 c -0.5,-0.7 -1.3,-3.1 -1.6,-5.3 -0.7,-3.9 -0.9,-4.1 -5.8,-5.3 -6.7,-1.5 -11.2,-4.6 -14.9,-10.2 -2.8,-4.1 -3,-5.1 -2.7,-10.7 0.5,-7.3 2.5,-10.7 8.5,-14.1 4,-2.2 4.1,-2.3 3.1,-5.6 -1.2,-3.9 -0.5,-6.6 1.7,-6.6 1.6,0 5,3 5.7,5 0.4,1.4 4.8,0.5 4.8,-1 0,-0.5 -1.1,-2 -2.5,-3.4 -1.4,-1.4 -2.5,-3.7 -2.5,-5.1 0,-3.6 4,-3.3 8.3,0.5 l 3.4,3 1.9,-2.1 c 1.8,-2 1.8,-2.1 -1.4,-4.7 -3.4,-2.9 -4.2,-6.6 -1.6,-7.6 0.8,-0.3 3.3,0.3 5.5,1.4 6.4,3.3 7.8,1 2.9,-4.7 -3.3,-3.7 -3.7,-5.5 -1.6,-7.2 1.6,-1.4 4.4,-0.3 8,3 2.2,2.1 2.6,2.2 4.5,1 1.2,-0.8 1.2,-1.6 0.1,-5.4 -1.3,-5 -0.8,-6.7 2,-6.7 1.8,0 5,3.7 6.3,7.3 0.4,1.1 1.7,1.7 3.9,1.7 4.4,0 11.4,3.6 14.3,7.4 4.1,5.3 5.8,12.1 5.1,19.8 -0.7,6.6 -0.7,6.7 2.1,8.1 1.5,0.8 3.7,2.5 4.7,3.6 1.8,2 1.9,2.3 0.3,3.8 -1.7,1.8 -1.9,1.7 -10.4,-1.4 -0.6,-0.3 -1.7,0.5 -2.3,1.7 -1,1.8 -0.7,2.6 1.9,5.6 5.7,6.4 2.8,10.5 -4,5.8 -3.2,-2.2 -4.1,-2.4 -5.4,-1.4 -1.7,1.4 -2,4.6 -0.4,5.5 1.5,1 2.9,5.3 2.3,7 -1,2.4 -4.3,1.7 -7.3,-1.6 -2.5,-2.7 -3.1,-2.9 -4.9,-1.8 -2,1.2 -2,1.3 0,4.7 4.2,7.4 -0.4,11.1 -5.8,4.7 -2.5,-3 -3.5,-3.6 -5.3,-3 -1.8,0.5 -2.1,1.2 -1.6,2.8 0.4,1.2 0.8,3.8 0.9,5.7 0.2,6.3 -6.1,4.5 -7.8,-2.3 -0.5,-2.2 -1.2,-2.7 -3.6,-2.7 -2.9,0 -3,0.2 -3,4.4 0,2.4 -0.3,5.1 -0.6,6 -0.7,1.9 -3.7,2.1 -5.2,0.4 z m 4.5,-24.3 c 4.8,-5.5 1.6,-12.9 -6,-14 -8.6,-1.2 -14.6,3.1 -13.3,9.7 1.4,7.5 14.2,10.3 19.3,4.3 z m 23.1,-11 c 0.9,-7.6 -5,-16.5 -10.9,-16.5 -4.7,0 -6.9,2.4 -6.9,7.6 0,5.6 2.6,10 7.4,12.4 3.4,1.6 4.3,1.7 7,0.6 2.3,-0.9 3.2,-2 3.4,-4.1 z m 18.7,-15 c 1.4,-1.4 2.5,-3.6 2.6,-4.8 0.6,-12.5 -4.6,-20.7 -13.1,-20.7 -4,0 -8.5,2.6 -9.9,5.7 -2.7,6 -0.2,15.4 5.3,19.3 5.4,3.9 11.4,4.1 15.1,0.5 z"
       id="path11370" />
    <path
       d="m 140.6,138.8 c -3.1,-4.4 -1.5,-9.8 2.9,-9.8 3.4,0 5.7,3.2 5.3,7.7 -0.3,3.5 -0.6,3.8 -3.5,4.1 -2.3,0.2 -3.5,-0.3 -4.7,-2 z"
       id="path11372" />
    <path
       d="M 43,182.1 C 32.8,176.5 29.5,164 36,155.7 c 2.6,-3.3 11.9,-7.7 16.2,-7.7 4.4,0.1 10.6,3 14.3,6.9 2.7,2.9 3,3.8 3,10.1 0,7.6 -1.2,10 -7.8,15.4 -4.8,3.9 -13.3,4.7 -18.7,1.7 z m 17.2,-9 c 2.2,-2.3 3.8,-5 3.8,-6.4 0,-3.7 -4.1,-9 -8.3,-10.6 -3.3,-1.2 -4.2,-1.2 -8.3,0.4 -4.7,1.8 -8.4,6.1 -8.4,9.8 0,3.2 3.2,8.7 5.9,10.3 1.6,0.9 4.3,1.3 7.1,1 3.6,-0.3 5.1,-1.1 8.2,-4.5 z"
       id="path11374" />
    <path
       d="m 45.8,172 c -2.2,-1.3 -3.2,-6.3 -1.8,-8.9 1.5,-3 6.5,-5.3 9.6,-4.5 3.5,0.9 5.5,5.7 4.2,9.7 -1.5,4.1 -7.8,6.1 -12,3.7 z"
       id="path11376" />
    <path
       d="m 443,159.2 c -1.3,-1 -2.3,-3.3 -2.7,-5.8 -0.5,-3.7 -0.2,-4.3 2.8,-6.8 2.7,-2.3 3.9,-2.7 6.7,-2.2 5,0.8 7.2,3.2 7.2,7.8 0,7.4 -8.3,11.6 -14,7 z"
       id="path11378" />
    <path
       d="m 497.5,140.9 c -23.6,-3.1 -43.1,-13.6 -50.3,-27.4 -6.1,-11.6 -1.4,-26 10.3,-31.8 7.2,-3.5 16.6,-2.9 25.6,1.6 4.6,2.4 16,9.6 16.9,10.8 2.6,3.4 22.7,9.9 30.7,9.9 3.8,0 8.9,3.3 11.4,7.2 3,5 2.4,15.2 -1.4,20.1 -3.4,4.4 -9.8,7.4 -19.7,9.3 -8.4,1.5 -13.3,1.6 -23.5,0.3 z m 27.1,-10 c 7.8,-2.9 10.9,-8.9 7.9,-15.2 -2,-4.3 -4.2,-5.5 -13.5,-6.7 -8.4,-1.2 -14.9,-3.9 -23.5,-9.8 -9.2,-6.2 -15.7,-8.5 -23.7,-8 -5.7,0.3 -7.3,0.8 -10.5,3.4 -11,8.9 -5.9,22 11.7,30.5 17.8,8.5 38.2,10.8 51.6,5.8 z"
       id="path11380" />
    <path
       d="m 503.7,128.5 c -0.3,-0.7 0.2,-2.4 1.2,-3.6 1.5,-1.8 2.1,-2 3.9,-1 2.3,1.2 2.6,2 1.6,4.5 -0.8,2 -6,2.1 -6.7,0.1 z"
       id="path11382" />
    <path
       d="m 516.3,126.3 c -3.5,-3 -3.8,-5.9 -0.9,-8.8 3,-3 6.5,-3.2 9.4,-0.5 4,3.8 2.1,9 -3.9,10.5 -1.7,0.4 -3.2,0 -4.6,-1.2 z"
       id="path11384" />
    <path
       d="m 484.5,125.2 c -5.8,-2.4 -7.9,-4.7 -7.9,-8.7 0,-4.3 2.5,-6.4 7.7,-6.5 10,-0.1 17,4.1 17,10.1 0,6.4 -7.9,8.8 -16.8,5.1 z"
       id="path11386" />
    <path
       d="m 505.5,117.4 c -0.9,-0.9 -1.5,-2.6 -1.3,-3.8 0.4,-2.8 4.7,-3.5 6.5,-1 1.7,2.3 1.6,2.9 -0.3,4.8 -2,2 -2.9,2 -4.9,0 z"
       id="path11388" />
    <path
       d="m 463.2,111.1 c -3,-2.6 -2.9,-7.5 0.3,-10.6 2.7,-2.8 4.2,-3 8,-1.3 2.9,1.3 4,4.5 3,8.5 -1.3,5.2 -7.2,7 -11.3,3.4 z"
       id="path11390" />
    <path
       d="m 479.2,105.8 c -2.5,-2.5 -0.7,-8.3 2.8,-8.9 3.5,-0.6 6,1.2 6,4.3 0,4.7 -5.7,7.7 -8.8,4.6 z"
       id="path11392" />
    <path
       d="m 63,135.4 c -0.6,-1.4 -1,-3.6 -1,-5 0,-1.9 -0.5,-2.4 -2.4,-2.4 -1.9,0 -2.7,0.8 -3.6,3.5 -0.8,2.4 -1.9,3.7 -3.7,4.1 -4,1 -5.2,-2.6 -2.8,-8.8 1.2,-3.1 -2.8,-2.5 -6.2,0.9 -3.4,3.5 -5.7,4.1 -7,2.1 -1.1,-1.9 -0.4,-4.9 1.8,-7.7 1.7,-2.1 1.8,-2.7 0.6,-3.8 -1.2,-1.2 -2.1,-1.1 -5.9,0.8 -9.2,4.4 -11,-1.6 -2.3,-7.5 1.7,-1.2 1.8,-1.7 0.7,-4 -1,-2.3 -1.7,-2.6 -6.1,-2.6 -8.2,0 -9.6,-5.2 -1.8,-6.7 3.7,-0.8 4.2,-1.2 4.5,-3.9 0.3,-3 0.1,-3.2 -3.8,-3.7 -4.7,-0.6 -7,-2.2 -7,-4.7 0,-2.2 1.9,-3 7.6,-3 2.4,0 4.4,-0.4 4.4,-0.9 0,-0.5 0.2,-1.6 0.5,-2.3 0.4,-0.9 -0.6,-1.8 -2.8,-2.6 -4.2,-1.5 -7.1,-4.6 -6.4,-6.7 0.7,-1.8 5.3,-2 9.3,-0.4 2.4,0.9 3,0.7 4.5,-1.3 1.7,-2.2 1.7,-2.4 -1.7,-5.5 -2.5,-2.2 -3.5,-3.9 -3.2,-5.5 0.4,-3.3 3.3,-3.4 7.8,-0.3 3.7,2.5 3.9,2.6 6.4,1 2.1,-1.4 2.3,-2 1.5,-4.1 -1.4,-3.7 -1.1,-8 0.6,-9.4 2,-1.7 5.2,1.1 6.3,5.4 0.5,1.7 1.1,3 1.5,2.9 0.4,-0.2 1.8,-0.3 3.2,-0.3 2.2,0 2.5,-0.4 2.5,-3.6 0,-4.5 1.5,-7.4 4,-7.4 2.5,0 3.2,1.3 3.4,6.8 0.2,3.8 0.7,4.7 2.7,5.4 1.9,0.7 2.7,0.5 4.1,-1.4 3.4,-4.6 5,-5.9 6.6,-5.6 2.3,0.4 2.7,5 0.7,8.8 -1.5,3 -1.5,3.3 0,5.1 1.7,1.8 1.8,1.8 5.1,-0.7 6.7,-5.1 11.2,-0.9 5.4,5.1 -2.4,2.5 -3,3.8 -2.5,5.5 0.7,2.3 1.2,2.3 7.2,-0.1 2.9,-1.2 3.5,-1.1 5,0.4 2.2,2.2 1,4.4 -4,7.2 -4.9,2.8 -3.6,5 2.8,4.6 7.3,-0.4 10.1,3.5 4.5,6.4 -1.6,0.8 -4,1.5 -5.5,1.5 -1.8,0 -2.5,0.5 -2.5,1.9 0,1.4 1,2 3.9,2.5 2.1,0.3 4.9,1.4 6.2,2.5 3.5,2.8 1.2,5.1 -5.2,5.1 -4,0 -4.9,0.3 -4.9,1.8 0,0.9 1.6,2.6 3.8,3.7 2.7,1.5 3.8,2.8 4,4.8 0.3,2.5 0.1,2.7 -3.7,2.7 -2.2,0 -4.3,-0.4 -4.6,-1 -1.1,-1.7 -4.3,-1.1 -5,1 -0.3,1.1 0.1,3 1,4.4 3.8,5.7 -1.1,10.4 -5.3,5.1 -3.1,-3.9 -5.5,-2.4 -4.7,3 0.5,3.2 0.3,4.6 -1,5.8 -2.2,2.3 -5.4,0.6 -6.2,-3.4 -0.8,-4 -4.3,-4.1 -4.3,-0.1 0,3.3 -2.5,7.2 -4.6,7.2 -0.8,0 -1.9,-1.2 -2.4,-2.6 z M 75.1,113.9 C 82,110.4 86.8,100 85.5,91.6 84.7,86.5 83,81 81.8,79.6 81.3,79 79.5,76.6 77.9,74.2 67.3,59.5 47.5,62.7 40.8,80.2 c -2,5.5 -2.3,14.2 -0.7,19.9 2.2,7.3 9.6,13.7 18.4,16 4.3,1.1 12.2,0.1 16.6,-2.2 z"
       id="path11394" />
    <path
       d="m 54.5,100 c -4,-1.6 -6.8,-5.8 -7.3,-10.9 -0.9,-9.6 3.3,-16 11.1,-16.8 3.9,-0.5 4.8,-0.2 8.2,2.8 4.5,3.9 6.5,8.3 6.5,13.8 0,5.2 -1.5,8.4 -5,10.4 -2.9,1.8 -10.1,2.2 -13.5,0.7 z"
       id="path11396" />
    <path
       d="m 182,122.3 c -10.5,-5.6 -14.6,-16.2 -10,-25.8 2.4,-4.9 7,-8.9 14.7,-12.6 7.2,-3.5 10.5,-11.4 6.8,-16.3 -1.3,-1.8 -1.6,-1.8 -4.9,-0.2 -8.6,4.1 -12.2,-1.4 -4.1,-6.4 3,-1.8 3.3,-2.5 2.5,-4.1 -0.6,-1.1 -2.1,-1.9 -3.5,-1.9 -4.1,0 -7.5,-1.8 -7.5,-4 0,-2.4 4.2,-4.3 8.2,-3.8 2.1,0.4 2.8,0 3,-1.6 0.3,-1.6 -0.7,-2.6 -3.7,-4.1 -2.9,-1.5 -4.1,-2.7 -4.3,-4.7 -0.4,-3.3 2.4,-4 8.2,-2.1 3.4,1.2 4.2,1.1 5.5,-0.2 1.3,-1.3 1.2,-1.7 -0.7,-3.8 -1.3,-1.3 -2.4,-3.7 -2.5,-5.3 -0.2,-2.5 0.2,-2.9 2.5,-3.2 2.1,-0.2 3.5,0.5 5.6,2.7 1.9,2.1 3.4,2.9 4.7,2.5 1.8,-0.4 2,-1.3 2,-6.2 0,-5.4 0.1,-5.7 2.5,-5.7 2.1,0 2.7,0.7 4,4.8 1.4,4.4 1.7,4.7 4.4,4.5 2.3,-0.2 3.2,-1 4.1,-3.7 1.3,-4 3.5,-5.7 6,-4.7 1.5,0.5 1.7,1.4 1.1,6.1 -0.5,4.7 -0.4,5.4 1.3,6 1.3,0.4 3.4,-0.4 6,-2 4.8,-3.2 7.5,-3 7.9,0.6 0.2,1.9 -0.5,3.3 -2.6,5.1 -2.8,2.4 -2.9,2.6 -1.3,4.7 1.5,1.9 2,2 4.9,1 8.3,-2.9 11.3,2.9 3.5,6.6 -5.9,2.7 -5.9,5.7 -0.1,7.1 8.5,1.9 7.4,8 -1.3,7.2 -4.2,-0.4 -4.8,-0.2 -5.3,1.6 -0.4,1.5 0.4,2.8 3,4.9 6.4,5.3 3,9.6 -4.8,6.1 -4.8,-2.2 -6.8,-0.9 -5,3.1 1.5,3.2 1.5,7.2 0.2,8 -1.8,1.1 -4.9,-0.5 -6.7,-3.6 -1.1,-1.8 -2.5,-2.9 -4,-2.9 -2,0 -2.3,0.5 -2.3,3.4 0,7.7 -6.2,8.1 -7.5,0.5 -0.7,-4 -0.8,-4.1 -3.8,-3.5 -1.7,0.3 -3.9,1.4 -5,2.4 -2.5,2.2 -1.7,7.5 1.7,11.1 6.4,6.8 8.8,17.9 5.3,24.6 -2,3.9 -6.5,8.1 -10,9.4 -5.3,2 -13,1.3 -18.7,-1.6 z m 7.3,-12.4 c 2.9,-1.6 3.7,-2.8 3.7,-6.1 0,-3.3 -3.5,-6.8 -6.7,-6.8 -3.2,0 -6.3,3.4 -6.3,6.8 0,3.3 2.7,6.1 6.8,7.1 0.2,0.1 1.3,-0.4 2.5,-1 z M 216.5,54.6 C 221.4,49.7 221,41.9 215.7,38.3 208,33 198,37.8 198,46.6 c 0,8.4 12.7,13.8 18.5,8 z"
       id="path11398" />
    <path
       d="m 589.6,123.4 c -0.3,-0.9 -0.6,-2.6 -0.6,-3.9 0,-1.3 -0.8,-4.3 -1.8,-6.7 -1.1,-2.4 -2.2,-5.9 -2.6,-7.8 -0.5,-3.2 -1.3,-3.8 -7.6,-6.8 -5.6,-2.6 -8,-4.4 -11.3,-8.7 -5.1,-6.7 -7.3,-7 -17,-2.4 -7.6,3.5 -12,3.6 -12.5,0.2 -0.3,-1.7 0.5,-2.4 3.5,-3.3 2.1,-0.7 5.7,-2.6 8,-4.1 2.3,-1.6 5.3,-3.3 6.7,-3.9 3,-1.1 3.8,-2.8 5.9,-12 0.8,-3.6 3.1,-9.3 5,-12.5 l 3.5,-6 -1.9,-9 c -1,-4.9 -1.8,-10.2 -1.9,-11.6 0,-3.5 2.2,-5.4 4.8,-4 1.5,0.8 2.3,2.9 3.2,8.3 1.6,9.5 2.4,11.5 5,12.3 4.8,1.5 6.4,-3.3 4.5,-13.3 -0.7,-3.7 -1.1,-7.9 -0.8,-9.4 1,-5.3 6.3,-4.2 6.3,1.4 0,3 2.5,14.3 4.1,18.5 0.4,1.2 2.8,3 5.4,4.2 2.6,1.1 6,3.2 7.7,4.6 1.6,1.4 3.8,2.5 4.9,2.5 1.8,0 1.9,0.9 1.9,15.9 0,15.2 -0.1,16 -2.5,19.5 -1.4,2 -2.5,4.3 -2.5,5 0,0.7 1.1,3 2.5,5 2.3,3.4 3.5,10.6 1.8,10.6 -0.5,0 -3,-1.7 -5.7,-3.8 -2.7,-2 -5.5,-4.1 -6.2,-4.7 -1.8,-1.3 -4.5,0.4 -6.3,4 -1.2,2.4 -1,3.7 0.9,11 1.8,6.5 2,8.7 1.1,10.4 -1.4,2.5 -4.6,2.8 -5.5,0.5 z m 0.6,-34.5 c 5.6,-2.5 10.7,-14.1 9.4,-21.2 C 598.2,60 587.8,53.6 580.6,56 574,58.2 569,66.1 569,74.6 c 0,10.4 12.1,18.5 21.2,14.3 z"
       id="path11400" />
    <path
       d="m 580.9,83.9 c -4.6,-4.6 0.2,-13.7 6.5,-12.5 5.9,1.2 7.7,5.6 4.3,10.7 -2.9,4.3 -7.5,5.1 -10.8,1.8 z"
       id="path11402" />
    <path
       d="m 313,120.4 c -15.9,-3.4 -29.5,-10.2 -40.3,-20.3 -4.5,-4.2 -4.8,-4.3 -6.6,-2.7 -1.1,1 -3.5,1.9 -5.3,1.9 -4.8,0.3 -5,-3.1 -0.4,-7 2.7,-2.2 3.4,-3.4 2.9,-5.1 -0.5,-2 -1,-2.2 -5.2,-1.6 -3.6,0.5 -5,0.2 -6,-0.9 -1.9,-2.4 0.1,-5.1 4.7,-6.5 l 3.9,-1.2 0.5,-6.8 c 1.3,-17.3 13.9,-30.9 31.8,-34.1 8.4,-1.6 21.2,-0.1 28.7,3.3 l 5.4,2.5 4.2,-3 c 7.1,-5 11,-0.4 4.8,5.5 -2.9,2.7 -2.9,3 -1.3,5 1.5,2 1.9,2.1 5.1,1 7,-2.4 9.9,3.3 3.4,6.5 l -3.3,1.6 0.6,8 c 0.8,12.6 2.2,17 7.1,23.6 4.8,6.3 6.1,11 4.9,17.4 -1,5.4 -6.8,11.2 -12.9,13 -6.2,1.8 -18,1.8 -26.7,-0.1 z m 24,-7.2 c 7.2,-3.5 10.1,-12.2 5.8,-17.7 -1.8,-2.4 -2.7,-2.7 -6.3,-2.3 -5.7,0.7 -10.7,3.3 -16,8.3 -5.4,5.2 -5.9,8.4 -1.7,11.3 4.8,3.4 11.5,3.6 18.2,0.4 z M 313.4,96.4 c 6.7,-2.3 13.7,-9.4 15.9,-16.3 3.3,-10.4 1.7,-19.5 -5.1,-28 -12.8,-15.9 -42.1,-10 -51.4,10.4 -5.4,12 -1.1,26.5 9.7,32.3 7.9,4.2 21.2,4.9 30.9,1.6 z"
       id="path11404" />
    <path
       d="m 330.7,106.3 c -1.3,-1.3 -0.7,-4.2 1.3,-6.1 1.8,-1.7 3.5,-2 7.3,-1.3 1.3,0.2 0.7,4.9 -0.9,6.5 -1.5,1.6 -6.5,2.2 -7.7,0.9 z"
       id="path11406" />
    <path
       d="m 284.5,90.5 c -3.3,-3.2 -3.4,-8.3 -0.2,-11.3 1.8,-1.7 3.6,-2.2 7.4,-2.2 6.6,0 10.3,2.7 10.3,7.5 0,7.5 -11.9,11.6 -17.5,6 z"
       id="path11408" />
    <path
       d="m 308,86.1 c -2,-3.9 2.2,-8.2 6,-6.1 2.2,1.2 2.7,4.9 0.8,6.8 -1.8,1.8 -5.6,1.4 -6.8,-0.7 z"
       id="path11410" />
    <path
       d="m 281.3,74 c -4.7,-1.9 -5.7,-8.2 -1.8,-12.4 2.9,-3.1 5.3,-3.3 8.9,-0.5 2.1,1.7 2.6,2.9 2.6,6.4 0,3.9 -0.4,4.6 -3,6 -3.3,1.7 -3.6,1.7 -6.7,0.5 z"
       id="path11412" />
    <path
       d="M 303.5,72.5 C 297.2,66.2 303.1,56 313,56 c 6.5,0 10.7,7.8 7.5,14 -2.9,5.5 -12.6,7 -17,2.5 z"
       id="path11414" />
    <path
       d="m 293.2,58.8 c -1.9,-1.9 -1.4,-5.6 0.9,-6.9 3.1,-1.6 6.9,0.3 6.9,3.5 0,3.8 -5.2,6 -7.8,3.4 z"
       id="path11416" />
    <path
       d="M 3.1,109.8 C 0.7,107.3 0,105.7 0,102.7 v -3.8 l 3.1,2.2 c 4.4,3.1 7.1,7.7 5.8,10.1 -1.3,2.5 -2.2,2.3 -5.8,-1.4 z"
       id="path11418" />
    <path
       d="m 230.3,105 c -2.8,-1.2 -4.3,-4 -4.3,-8.3 0,-7.2 9.3,-10.5 14.7,-5.1 2.1,2.1 2.4,3.2 2,6.2 -0.4,2 -1.4,4.4 -2.4,5.4 -2.2,2.2 -7.1,3.1 -10,1.8 z"
       id="path11420" />
    <path
       d="M 404.3,96.8 C 403.1,95.2 399,80 399,77.2 c 0,-2.6 -2.6,-5.3 -4.5,-4.6 -1.9,0.8 -4.2,6.1 -4.9,11.9 -1.1,7.8 -2.4,10.5 -5.4,10.5 -2.3,0 -2.4,-0.2 -1.8,-4.2 0.4,-2.4 1.1,-7.8 1.6,-12 0.5,-4.3 1.1,-8.2 1.4,-8.7 1.3,-2.1 -1.8,-2.2 -4.5,-0.2 -1.5,1.1 -3.2,2.1 -3.6,2.1 -0.4,0 -3.4,1.6 -6.5,3.6 -3.9,2.4 -6.5,3.3 -7.8,2.9 -4.5,-1.4 -1.3,-6.4 6.9,-10.5 7.6,-3.8 11.6,-10.1 7.5,-11.7 -2,-0.7 -11.1,2 -17.2,5.3 -2.5,1.3 -5.1,2.4 -5.8,2.4 -1.5,0 -2.8,-3.5 -1.9,-5 1,-1.7 9.5,-6.2 15.8,-8.5 3.4,-1.3 6.3,-2.7 6.5,-3.4 0.4,-1.1 -2.4,-2.6 -6.9,-3.5 -1.4,-0.3 -4.5,-2.1 -7,-4.1 -2.4,-1.9 -5.9,-4 -7.6,-4.6 -2.5,-0.8 -3.3,-1.6 -3.3,-3.5 0,-2 0.5,-2.4 3.3,-2.4 1.9,0 5,1.2 7.7,3 5.8,3.9 11.3,5.4 14,4 1.1,-0.6 2,-1.7 2,-2.5 0,-2.7 -5,-7.3 -12,-10.9 -5.6,-3 -7,-4.2 -7,-6 0,-1.3 0.7,-2.7 1.6,-3 1.8,-0.7 16.5,6.4 20,9.5 6.7,6.2 6.4,-4.3 -0.5,-12.9 C 377.4,8 375.7,4.8 375.4,3.1 374.8,0.2 374.9,0 377.8,0 c 2.3,0 3.2,0.6 4.1,2.8 0.6,1.5 2.5,4.3 4.2,6.2 1.7,1.9 3.9,5.2 5,7.3 1.1,2.1 2.5,3.7 3.2,3.4 0.7,-0.2 1.5,-2.6 1.8,-5.3 0.3,-2.7 1.4,-7 2.4,-9.6 1.6,-4.4 1.9,-4.8 5.1,-4.8 1.9,0 3.4,0.3 3.4,0.8 0,0.4 -0.9,3.6 -2.1,7.2 -1.1,3.6 -1.7,7.5 -1.4,8.7 0.7,3 4.1,3 5.1,0.1 0.9,-3.2 3.3,-5.7 7.4,-7.8 1.9,-1 4.4,-3.2 5.5,-4.9 2.1,-3.3 5.2,-4.1 6.1,-1.6 0.7,1.6 -1.4,7.5 -2.6,7.5 -0.3,0 -2.5,1.7 -4.8,3.8 -3.2,3 -4.2,4.6 -4.2,7 0,6.7 8.6,4.6 14.5,-3.5 4.4,-6 10.5,-8.1 10.5,-3.7 0,0.9 -1.5,3.2 -3.3,5.2 -1.9,2.1 -5.5,6 -8,8.8 -7.3,7.9 -6.2,10.3 3.3,7.3 3,-0.9 8.2,-2 11.6,-2.4 5,-0.5 6.3,-0.4 7.4,1 2.2,2.6 0,4.9 -5.5,5.7 -9.9,1.4 -19.4,5.6 -17.9,7.9 0.3,0.5 2.4,0.9 4.7,0.9 2.7,0 5.6,0.9 8.2,2.5 2.2,1.3 5.2,2.5 6.7,2.5 4.2,0 5.8,1 5.8,3.6 0,1.8 -0.6,2.4 -2.2,2.6 -4.5,0.2 -8.3,-0.4 -10.2,-1.8 -2.1,-1.4 -9.1,-1.9 -12,-0.8 -3,1.2 -1.4,3.9 6.4,10.9 7.8,6.9 9.7,9.5 8.5,11.5 -1.3,2.1 -5,0.8 -9.6,-3.5 -2.6,-2.5 -6.4,-5.2 -8.4,-6.2 -3.2,-1.5 -3.7,-1.5 -5.1,-0.1 -1.4,1.4 -1.4,2 -0.1,6.4 3.6,11.4 5.2,19.4 4.1,19.5 -0.5,0 -1.9,0.2 -3.1,0.3 -1.2,0.1 -2,-0.1 -1.7,-0.6 0.3,-0.5 0.1,-1.4 -0.4,-2.1 -0.6,-0.7 -1.7,-3.6 -2.5,-6.5 -2.7,-9 -6.5,-13.6 -9.7,-11.7 -1.5,0.9 -1.2,7.6 0.5,12.5 0.8,2.3 1.5,5.8 1.5,7.6 0,2.9 -0.3,3.4 -2.4,3.4 -1.3,0 -2.8,-0.6 -3.3,-1.2 z m 7.6,-33.3 c 7.7,-3.9 10.3,-11.5 7.5,-21.5 -4,-14.3 -17.6,-19.2 -29.8,-10.7 -4.1,2.9 -7,9.8 -6.1,15.2 1,7.3 7.8,15.6 14.3,17.5 4.4,1.3 11.1,1.1 14.1,-0.5 z"
       id="path11422" />
    <path
       d="m 391.9,53.2 c -2.4,-2.1 -3.2,-3.8 -3.6,-7.4 -0.5,-4.2 -0.3,-5 2.5,-7.8 1.9,-1.8 4.1,-3 5.7,-3 10,0 15.3,14.1 7.2,19 -4.5,2.8 -8.1,2.5 -11.8,-0.8 z"
       id="path11424" />
    <path
       d="m 139.1,93 c -1.8,-0.4 -4.5,-1.7 -6,-2.7 -2.8,-2.1 -3.2,-2.8 -11.2,-19.6 C 115.4,57.2 108.4,49.3 94.6,40 89,36.3 83.5,32.3 82.3,31.1 74.5,23.7 74.5,11.4 82.3,3.8 L 86.2,0 h 14.8 14.7 l 6.7,4.3 c 3.7,2.4 9.9,7.4 13.8,11.3 18.2,17.8 27.8,36.8 27.8,54.8 -0.1,13.1 -4,19 -14.7,22.2 -5.1,1.5 -5.3,1.5 -10.2,0.4 z m 13.2,-12.2 c 2,-1.8 4,-4.6 4.3,-6.2 l 0.7,-2.9 -3.4,2.5 c -4.4,3.3 -9.1,4.8 -14.8,4.8 h -4.6 l 2.9,2.5 c 4.4,3.8 10.2,3.5 14.9,-0.7 z m -3.1,-12.4 c 5.5,-3.8 6.9,-6.5 5.6,-10.8 l -1.1,-3.3 -3.5,3.9 c -4.3,4.8 -9.6,7.6 -15.7,8.5 -5,0.6 -4.9,0.6 -3.4,3.5 1,1.8 1.8,2 7.5,1.6 5,-0.3 7.2,-1 10.6,-3.4 z M 137.1,57.9 c 8.9,-4.8 13,-11 10.4,-16 -1.9,-3.5 -3.1,-3.7 -3.9,-0.5 -0.9,3.5 -9.9,11.2 -15.6,13.3 -4.8,1.8 -4.9,1.9 -3.4,4.1 2.1,3 5.5,2.8 12.5,-0.9 z m -14.6,-9.3 c 4.8,-2 12.8,-9.8 14.9,-14.5 1.8,-3.8 1.8,-3.9 -0.5,-6.5 l -2.3,-2.6 -1.3,3.1 c -0.7,1.7 -2.6,4.8 -4.3,6.9 -1.6,2 -2.6,4.1 -2.2,4.5 0.4,0.5 0.1,0.5 -0.6,0.1 -0.7,-0.4 -2.3,0.2 -3.8,1.3 -1.4,1.1 -4.1,2.5 -6,3.1 l -3.4,1.2 2.2,2.4 c 2.7,2.8 2.9,2.8 7.3,1 z m -6.1,-12.5 c 4.8,-3.3 9.2,-9.1 10.6,-14.2 1,-3.1 0.8,-3.6 -2.2,-6.3 l -3.2,-3 -0.7,3.1 c -1.2,6.2 -7.8,14.1 -14.9,17.9 -1.9,1 -3.7,2 -3.9,2.1 -0.2,0.1 0.7,1.2 2,2.3 3,2.6 6.5,2 12.3,-1.9 z m -14.3,-8.4 c 6.1,-4.6 10,-10.6 10.6,-16.1 0.4,-2.9 0.2,-4.6 -0.5,-4.6 -0.6,0 -1.7,-0.3 -2.6,-0.6 -1.2,-0.5 -1.6,0 -1.6,2.1 0,5.9 -6.6,14.7 -13.6,18 -2.8,1.3 -3.2,1.8 -2.1,3 2,2.3 5.3,1.7 9.8,-1.8 z m -9,-8.6 c 4.8,-3 8.4,-8.7 7.3,-11.5 -0.7,-2 -1.5,-2 -5.7,-0.2 -4.8,1.9 -8.7,7 -8.7,11.2 0,4.2 1.2,4.3 7.1,0.5 z"
       id="path11426" />
    <path
       d="M 0,64.5 C 0,50.4 0.2,49 1.9,48.1 c 1,-0.6 3.3,-3.5 5,-6.5 3.5,-6.2 8.2,-9.6 10.7,-7.5 2,1.6 1.8,2.2 -2,6.2 -1.9,2 -3.7,5 -4.1,6.6 C 10.8,50 8.2,53.2 3.6,56.5 0.8,58.5 0.7,58.6 1.9,64 2.8,68 2.8,70.8 2,74.7 1.4,77.6 0.7,80 0.4,80 0.2,80 0,73 0,64.5 Z"
       id="path11428" />
    <path
       d="m 494.2,75.3 c -0.7,-0.3 -2.8,-2.9 -4.7,-5.9 -3,-4.7 -4.5,-5.9 -10.2,-8.5 -3.7,-1.7 -7.1,-3.6 -7.5,-4.2 -1.4,-2.2 -0.8,-6.2 1.6,-11 2.8,-5.4 2.4,-8.5 -1.9,-14.7 -4.9,-7.1 -2.1,-12.7 7.8,-15.5 C 485.6,13.8 491.7,8.6 494,3 l 1.2,-3 h 9.9 9.8 l 2.6,4.8 c 3.7,6.6 6.3,8.2 16.3,9.7 11.6,1.7 14,2.9 15.2,7.6 1.3,4.8 0.2,7.7 -5.3,13.7 -6.6,7.1 -7,8.2 -6.2,18.1 l 0.7,8.6 -3.4,3.9 c -3.8,4.3 -5.1,4.6 -16.3,3.1 -5.9,-0.7 -6.1,-0.7 -10.8,2.9 -4.6,3.5 -9.4,4.6 -13.5,2.9 z m 28.6,-15.9 c 4.1,-2.4 6.8,-7.8 7.5,-14.8 0.5,-5.2 1.1,-6.4 4.7,-10.1 7.1,-7.3 4.3,-12.5 -8,-14.6 -6.2,-1.1 -6.8,-1.5 -13.2,-8.2 -8.1,-8.5 -9.9,-8.5 -15.2,-0.3 -1.9,3 -6,7.3 -9,9.5 -3.1,2.3 -6,5 -6.6,6 -4,7.6 3.9,26.5 13.1,31.3 7.8,4 21,4.6 26.7,1.2 z"
       id="path11430" />
    <path
       d="m 504.5,55.5 c -2.2,-0.8 -4.6,-2.2 -5.3,-3.2 -1.5,-2.1 -1,-7.7 1,-10 3.5,-4.3 15.5,-5.8 20.9,-2.6 4.9,2.9 5.7,10 1.5,14.1 -3.1,3.2 -12,4 -18.1,1.7 z"
       id="path11432" />
    <path
       d="M 488.5,38.5 C 483.9,34 486.2,26 492.1,26 c 3.6,0 7.9,4.2 7.9,7.7 0,2.9 -4.2,7.3 -7,7.3 -1.1,0 -3.2,-1.1 -4.5,-2.5 z"
       id="path11434" />
    <path
       d="m 504.1,32.1 c -2.7,-5 3.6,-8.5 15.4,-8.6 8.6,0 12.9,1.9 13.3,5.8 0.4,3.5 -1,4 -8.2,2.9 -3.4,-0.6 -7.4,-0.5 -9.9,0 -9.6,2.1 -9.5,2.1 -10.6,-0.1 z"
       id="path11436" />
    <path
       d="m 502.2,19.8 c -3,-3 0.1,-8.8 4.6,-8.8 2.5,0 3.8,3.5 2.8,7.5 -0.5,1.9 -1.3,2.5 -3.4,2.5 -1.5,0 -3.3,-0.5 -4,-1.2 z"
       id="path11438" />
    <path
       d="M 39,30.2 C 35,26.1 34.3,21.2 36.9,15.7 38.1,13.3 39,10.6 39,9.7 39,7.5 35.9,6 31.2,6 29.1,6 25.2,4.9 22.4,3.5 13.9,-0.8 10,0.6 8.6,8.4 7.9,12.2 3.3,18 1.1,18 0.4,18 0,14.8 0,9 V 0 h 23.8 23.8 v 4.6 c -0.1,4.6 0,4.7 3.9,6 8,2.8 10.9,10.3 6.6,16.8 -2.7,4 -5.7,5.5 -11.4,5.6 -4,0 -5.3,-0.5 -7.7,-2.8 z m 9.2,-9.7 c 1.7,-3.7 -1,-6.4 -4.7,-4.7 -2.4,1.1 -3.5,4.9 -1.8,6.5 1.6,1.7 5.4,0.6 6.5,-1.8 z"
       id="path11440" />
    <path
       d="M 321.5,17 C 315.9,14.3 313.7,12.2 310,5.7 L 306.8,0 h 5.7 c 5,0 5.9,0.3 8.2,3 3.5,4.3 7.9,6.3 11.7,5.6 3.3,-0.7 8.6,-5.2 8.6,-7.3 0,-0.9 1.7,-1.3 5.9,-1.3 h 5.9 l -1.1,3.5 c -1.5,4.9 -7.3,11.4 -12.1,13.6 -5.3,2.4 -13,2.4 -18.1,-0.1 z"
       id="path11442" />
    <path
       d="m 171.3,16 c -0.7,-1 -1.6,-4.5 -1.9,-7.7 -0.4,-3.2 -1.1,-6.4 -1.7,-7 -0.7,-1 0.1,-1.3 3.6,-1.3 3.8,0 4.6,0.3 5.1,2.3 0.8,2.9 0.8,12.1 0,14.1 -0.8,2.2 -3.7,2 -5.1,-0.4 z"
       id="path11444" />
    <path
       d="m 602.8,16 c -3.3,-2.6 -5,-6.8 -4.6,-11.6 0.3,-3.7 0.5,-3.9 3.8,-4.1 1.9,-0.1 2.9,0 2.3,0.3 -2,0.9 -1.5,5.2 0.5,6.3 2.8,1.5 6.5,-1.4 5.9,-4.5 -0.2,-1.3 0,-2.4 0.4,-2.4 0.5,0 0.9,4.1 0.9,9 v 9 h -3.4 c -1.8,0 -4.5,-0.9 -5.8,-2 z"
       id="path11446" />
    <path
       d="M 251.4,15.2 C 245.4,13.1 238.5,7.9 236.5,3.9 235.7,2.4 235,0.9 235,0.5 235,0.2 238.1,0 241.9,0 c 5.6,0 7.4,0.4 9.7,2.3 2.2,1.7 4.2,2.2 8.4,2.2 4.1,0 6.3,-0.6 8.7,-2.2 2.6,-1.9 4.4,-2.3 11.2,-2.3 4.5,0 8.1,0.3 8.1,0.6 0,1.4 -2.6,5.2 -5.8,8.7 -6.9,7.1 -19.9,9.6 -30.8,5.9 z"
       id="path11448" />
    <path
       d="m 157.8,11.2 c -2,-0.4 -2.4,-4.5 -0.8,-8.6 0.8,-2.2 1.6,-2.6 5,-2.6 2.2,0 4,0.2 4,0.4 0,0.2 -0.8,2.4 -1.9,4.8 -2.1,4.9 -3.8,6.6 -6.3,6 z"
       id="path11450" />
    <path
       d="M 182.8,5.6 C 181.2,3.2 180,1 180,0.6 180,0.3 181.9,0 184.3,0 c 3.7,0 4.5,0.4 6,3 2.4,4 1.4,7 -2.1,7 -2.1,-0.1 -3.3,-1.1 -5.4,-4.4 z"
       id="path11452" />
    <path
       d="M 141.7,8.3 C 140.5,7.2 141,2.9 142.4,1.4 143.3,0.6 145.8,0 148.5,0 h 4.7 l -2.8,3.8 c -1.5,2 -3.3,4 -3.8,4.4 -1.4,1 -4.1,1 -4.9,0.1 z"
       id="path11454" />
    <path
       d="M 561,3.1 C 559.5,0.2 559.7,0 563.5,0 c 3.1,0 3.5,0.3 3.5,2.5 0,2 -0.5,2.5 -2.5,2.5 -1.4,0 -2.9,-0.8 -3.5,-1.9 z"
       id="path11456" />
    <path
       d="m 328.5,2 c -1.8,-2 -1.7,-2 3.5,-2 5.2,0 5.3,0 3.5,2 -1,1.1 -2.6,2 -3.5,2 -0.9,0 -2.5,-0.9 -3.5,-2 z"
       id="path11458" />
    <path
       d="m 544.6,1.5 c -0.4,-1.2 0.3,-1.5 3.1,-1.5 3,0 3.4,0.2 2.3,1.5 -0.7,0.8 -2,1.5 -3,1.5 -1,0 -2,-0.7 -2.4,-1.5 z"
       id="path11460" />
    <path
       d="m 450,1 c 0,-0.5 1.4,-1 3.1,-1 1.7,0 2.8,0.4 2.4,1 -0.3,0.6 -1.7,1 -3.1,1 C 451.1,2 450,1.6 450,1 Z"
       id="path11462" />
  </g>
</svg>
